<?xml version="1.0" encoding="UTF-8"?><svg id="_ÎÓÈ_4" xmlns="http://www.w3.org/2000/svg" viewBox="0 0 1700 1661.68"><defs><style>.cls-1{fill:#fff;}.cls-2{fill:#171515;}</style></defs><g><g><path class="cls-2" d="M443.49,657.35s-144.67-33.07-169.46-103.33l49.6,20.67,28.93-70.27s-107.46-33.07-177.73,57.86c-70.27,90.93-136.4,239.73-136.4,239.73,0,0,49.6,86.8,140.53,119.87,90.93,33.07,152.93,41.33,152.93,41.33l111.6-305.86Z"/><path class="cls-1" d="M334.85,968.1l-3.55-.47c-.62-.08-63.52-8.71-153.87-41.56-91.42-33.24-140.82-118.24-142.88-121.84l-1.12-1.96,.92-2.06c.66-1.49,67.16-150.33,136.94-240.65,41.81-54.11,96.44-65.46,134.9-65.46,27.66,0,46.87,5.81,47.67,6.06l4.67,1.44-32.5,78.93-43.35-18.06c33.16,60.49,160.44,90.23,161.79,90.54l4.93,1.12-114.56,313.98ZM43.46,801.71c7.92,12.84,56.18,86.57,137.03,115.97,77.28,28.1,134.12,38.28,148.47,40.57l108.64-297.75c-26.15-6.6-144.78-39.86-167.77-105l-3.34-9.46,54.72,22.81,25.28-61.39c-7.16-1.67-21.85-4.44-40.29-4.44-36.47,0-88.25,10.76-127.84,62-64.62,83.62-126.55,218.25-134.9,236.71Z"/></g><path class="cls-1" d="M406.29,678.01s-140.53-49.6-173.6-99.2l-148.8,223.2,99.2-107.47-86.8,136.4s151.07,82.28,225.47,82.28l1.86-12.01s-140.53-37.2-177.73-66.13l90.93-181.86-28.93,16.53,28.93-49.6s82.67,57.86,169.47,57.86Z"/><g><path class="cls-2" d="M79.76,855.74L5.36,1033.47s124,107.47,248,124l78.53-194.26s-190.13-53.73-252.13-107.46Z"/><path class="cls-1" d="M256.2,1162.35l-3.43-.46c-123.89-16.52-249.08-123.97-250.33-125.05l-2.44-2.12,78.02-186.4,4.66,4.04c60.55,52.47,248.53,106.01,250.42,106.54l4.79,1.35-81.69,202.08ZM10.74,1032.17c17.81,14.81,129.15,104.13,239.79,120.4l75.37-186.44c-29.76-8.66-183.43-54.86-244.35-103.11L10.74,1032.17Z"/></g><g><path class="cls-2" d="M1256.51,657.35s144.66-33.07,169.47-103.33l-49.6,20.67-28.93-70.27s107.47-33.07,177.73,57.86c70.26,90.93,136.4,239.73,136.4,239.73,0,0-49.6,86.8-140.54,119.87-90.93,33.07-152.93,41.33-152.93,41.33l-111.6-305.86Z"/><path class="cls-1" d="M1363.96,970.06l-115.74-317.22,6.9-1.58c1.31-.3,121.49-28.41,157.91-85.08l-40.04,16.68-33.93-82.4,6.55-2.01c.82-.25,20.27-6.14,48.19-6.14,38.87,0,94.07,11.48,136.32,66.16,69.91,90.48,136.5,239.52,137.16,241.01l1.29,2.89-1.57,2.74c-2.07,3.62-51.79,89.17-143.82,122.63-90.52,32.92-153.61,41.57-154.24,41.66l-4.97,.66Zm-99.2-308.32l107.46,294.51c16.35-2.69,71.93-13.06,146.69-40.25,78.9-28.69,126.47-99.75,135.62-114.42-9.71-21.38-70.73-153.22-134.3-235.49-57.23-74.06-140.15-62.59-164.26-57.37l23.79,57.77,56.78-23.66-4.68,13.25c-22.76,64.49-137.36,97.96-167.1,105.65Z"/></g><path class="cls-1" d="M1293.71,678.01s140.53-49.6,173.6-99.2l148.8,223.2-99.2-107.47,86.8,136.4s-151.07,82.28-225.47,82.28l-1.86-12.01s140.53-37.2,177.73-66.13l-90.93-181.86,28.93,16.53-28.93-49.6s-82.67,57.86-169.47,57.86Z"/><g><path class="cls-2" d="M1620.24,855.74l74.4,177.73s-124,107.47-248,124l-78.53-194.26s190.13-53.73,252.13-107.46Z"/><path class="cls-1" d="M1443.8,1162.35l-81.7-202.08,4.79-1.35c1.89-.54,189.89-54.08,250.42-106.54l4.66-4.04,78.02,186.4-2.44,2.12c-1.25,1.08-126.44,108.53-250.33,125.05l-3.43,.46Zm-69.71-196.23l75.37,186.44c110.64-16.27,221.97-105.59,239.79-120.4l-70.81-169.16c-60.92,48.25-214.59,94.45-244.35,103.11Z"/></g><path class="cls-1" d="M89.86,902.38l-49.36,120.66,46.62-52.1-24.68,71.3s46.62,43.88,104.2,65.81c57.59,21.94,90.49,19.2,90.49,19.2l27.42-95.98s-74.04-13.71-126.14-46.62c0,0,32.91,49.36,82.27,63.07,0,0-82.27-13.71-120.66-43.87l30.16-79.53-35.65,49.36,10.97-60.33-35.65-10.97Z"/><path class="cls-1" d="M1606.33,902.38l49.36,120.66-46.62-52.1,24.68,71.3s-46.62,43.88-104.21,65.81c-57.59,21.94-90.49,19.2-90.49,19.2l-27.42-95.98s74.04-13.71,126.14-46.62c0,0-32.91,49.36-82.27,63.07,0,0,82.27-13.71,120.66-43.87l-30.17-79.53,35.65,49.36-10.97-60.33,35.65-10.97Z"/></g><g><g><path class="cls-2" d="M1604.86,1387.63c-12.41-29.58-57.09-57.5-112.93-79.84-113.71-45.48-351.8-55.84-647.75-55.84s-508.15,0-631,50.25c-64.76,26.49-106.1,61.42-118.52,85.42-29.95,57.88-26.67,259.31-26.67,259.31,0,0,86.68-83.13,200.02-118.36,105.43-32.78,525.27-55.39,583.38-58.39,57.71,3,474.67,25.61,580.1,58.39,113.35,35.24,200.02,118.36,200.02,118.36,0,0-1.45-199.22-26.67-259.31Z"/><path class="cls-1" d="M1637.88,1661.68l-10.67-10.23c-.86-.82-87-82.54-197.56-116.91-105.08-32.67-528.57-55.52-578.25-58.1-50.02,2.58-476.45,25.43-581.53,58.1-110.55,34.37-196.7,116.09-197.56,116.91l-10.33,9.9-.23-14.31c-.13-8.29-2.95-203.68,27.37-262.29,11.67-22.56,50.54-59.23,121.7-88.33,123.99-50.72,326.63-50.72,633.36-50.72,251.87,0,526.07,6.69,650.07,56.28,44.65,17.86,101.08,46.79,116.37,83.22,25.41,60.53,27.1,253.5,27.16,261.68l.1,14.78Zm-793.7-403.49c-305.25,0-506.92,0-628.63,49.79-63.66,26.04-103.79,60.2-115.33,82.52-24.42,47.19-26.14,196.34-26.07,242.56,26.63-22.97,101.23-82.22,192.02-110.45,106.76-33.19,536.29-56.15,584.91-58.66l.33-.02,.32,.02c48.29,2.51,474.86,25.47,581.62,58.66,90.44,28.11,164.82,87.02,191.71,110.18-.91-46.46-5.37-193.68-25.97-242.75-10.62-25.31-49.51-52.47-109.49-76.46-122.03-48.81-394.75-55.39-645.43-55.39Z"/></g><g><path class="cls-2" d="M1518.66,1164.27c-10.95-29.58-50.36-57.5-99.61-79.84-100.3-45.48-310.31-55.84-571.37-55.84s-448.23,0-556.59,50.26c-57.12,26.49-93.58,61.43-104.54,85.43-26.42,57.88-23.52,259.31-23.52,259.31,0,0,76.46-83.13,176.44-118.36,93-32.78,463.33-55.39,514.59-58.39,50.91,3,418.7,25.61,511.7,58.39,99.98,35.24,176.44,118.36,176.44,118.36,0,0-1.28-199.22-23.53-259.31Z"/><path class="cls-1" d="M1548.53,1439.7l-10.94-11.89c-.76-.82-76.63-82.42-173.92-116.7-92.46-32.59-465.45-55.42-509.62-58.02-44.48,2.6-420.06,25.44-512.52,58.02-97.39,34.32-173.16,115.88-173.92,116.7l-10.62,11.54-.23-15.68c-.12-8.28-2.6-203.51,24.09-262,10.31-22.59,44.67-59.32,107.59-88.5,109.61-50.83,288.48-50.83,559.22-50.83,222.31,0,464.36,6.7,573.95,56.4,39.49,17.91,89.39,46.91,102.89,83.36,22.37,60.43,23.86,253.26,23.91,261.44l.1,16.16Zm-700.86-404.87c-269.08,0-446.85,0-553.96,49.67-55.99,25.97-91.32,60.07-101.49,82.36-21.39,46.86-23.08,193.84-23.04,241.53,24.58-24.02,88.58-81,168.2-109.07,92.38-32.56,446.3-54.64,516.31-58.74l.36-.02,.37,.02c69.52,4.1,421.02,26.18,513.4,58.74,79.31,27.95,143.11,84.59,167.9,108.78-.85-47.89-4.89-192.97-22.92-241.67-9.37-25.29-43.58-52.4-96.34-76.32-107.43-48.71-347.81-55.28-568.79-55.28Z"/></g><g><path class="cls-2" d="M1421.48,925.17c-9.4-37.11-43.22-72.14-85.5-100.16-86.09-57.06-266.34-70.05-490.4-70.05s-384.72,0-477.72,63.04c-49.03,33.23-80.33,77.05-89.73,107.16-22.67,72.61-20.19,269.46-20.19,269.46,0,0,65.63-55.89,151.44-100.09,79.82-41.12,397.68-69.49,441.67-73.25,43.69,3.76,359.36,32.13,439.19,73.25,85.82,44.2,151.44,100.09,151.44,100.09,0,0-1.1-194.08-20.19-269.46Z"/><path class="cls-1" d="M1448,1208.22l-10.37-8.83c-.65-.55-66.11-55.96-150.25-99.3-78.85-40.61-397.48-69.17-436.33-72.53-39.13,3.36-359.98,31.92-438.82,72.53-84.14,43.34-149.6,98.75-150.25,99.3l-10.13,8.62-.17-13.3c-.1-8.08-2.23-198.68,20.48-271.4,8.77-28.08,38.17-73.86,92.18-110.47,94.59-64.12,248.41-64.12,481.23-64.12,127.76,0,222.36,4.35,297.71,13.67,90.62,11.22,154.78,30,196.14,57.41,33.88,22.45,76.67,58.7,88.1,103.83,19.06,75.26,20.34,263.01,20.38,270.96l.08,13.62Zm-602.42-447.01c-230.51,0-382.8,0-474.22,61.97-48.05,32.57-78.46,75.63-87.27,103.85-18.78,60.14-20.04,209.56-19.98,254.53,21.85-17.35,76.48-58.61,142.4-92.57,79.66-41.04,383.84-68.78,444-73.92l.53-.04,.53,.04c59.75,5.15,361.85,32.89,441.51,73.92,65.7,33.84,120.18,74.93,142.18,92.39-.67-45.01-4.03-192.25-19.85-254.68-8.16-32.2-37.6-66.46-82.9-96.48-91.75-60.81-297.65-69.01-486.95-69.01Z"/></g><path class="cls-2" d="M392.79,1064.28s92.38-49.28,134.25-104.25c28.89-37.93,92.12-57.59,173.08-15.71,80.96,41.88,94.91,57.59,159.12,57.59,72.63,0,156.82-96.8,226.12-89,33.01,3.72,78.15,34.46,117.25,70.68,43.56,40.35,81.49,86.39,125.62,86.39l-23.87-172.83-526.08-138.68-339.68,65.56-67.9,170.03,22.08,70.22Z"/><g><path class="cls-1" d="M266.09,1295.17c-13.57,7.27-24.35,14.03-32.89,20.07-13.3,16.75-18.38,27.57-18.38,27.57l-10.73-1.18c-.91,1.26-1.28,1.94-1.28,1.94,0,0,.14-.73,.43-2.03l-9.74-1.07s7.03-11.86,18.02-25.42c4.83-12.07,11.88-25.58,21.68-35.38,28.19-28.19,54.59-38.46,78.17-49.63,0,0-45.91,6.2-75.69,29.78-8.16,6.46-16.47,15.27-22.92,22.71l-4.38,24.44-12.41,1.24c0-1.44,2.59-14.73,6.71-32.36l9.42-114.68s-16.75,31.64-20.47,100.5c-3.72,68.86-3.72,109.81-3.72,109.81,0,0,50.25-50.25,102.36-70.72,52.11-20.47,78.17-24.19,78.17-24.19,0,0-50.25-9.31-102.37,18.61Z"/><path class="cls-1" d="M208.39,1306.96l4.38-24.44,16.72-93.43c-9.9,19.8-20.26,58.75-26.79,86.76-4.11,17.63-6.71,30.92-6.71,32.36l12.41-1.24Z"/><path class="cls-1" d="M203.25,1341.53l.84,.09,10.73,1.18s5.08-10.82,18.38-27.57c13.7-17.25,36.11-40.8,70.74-65.35,0,0-51.87,25.55-73.2,44.67-7.14,6.4-13.67,13.66-19.2,20.49-10.99,13.56-18.02,25.42-18.02,25.42l9.74,1.07Z"/></g><g><path class="cls-1" d="M160.87,1525.94c-11.71,6.27-21,12.1-28.38,17.31-11.47,14.45-15.86,23.78-15.86,23.78l-9.25-1.02c-.78,1.09-1.1,1.67-1.1,1.67,0,0,.12-.63,.37-1.75l-8.4-.93s6.07-10.22,15.55-21.92c4.17-10.41,10.25-22.06,18.7-30.52,24.32-24.32,47.09-33.18,67.42-42.81,0,0-39.6,5.35-65.28,25.69-7.04,5.57-14.21,13.17-19.77,19.58l-3.77,21.08-10.7,1.07c0-1.24,2.24-12.7,5.78-27.91l8.13-98.91s-14.45,27.29-17.66,86.69c-3.21,59.4-3.21,94.71-3.21,94.71,0,0,43.34-43.35,88.29-61,44.95-17.66,67.42-20.87,67.42-20.87,0,0-43.34-8.03-88.29,16.05Z"/><path class="cls-1" d="M111.1,1536.1l3.77-21.08,14.42-80.59c-8.54,17.08-17.48,50.68-23.11,74.83-3.55,15.2-5.78,26.67-5.78,27.91l10.7-1.07Z"/><path class="cls-1" d="M106.66,1565.93l.73,.08,9.25,1.02s4.39-9.33,15.86-23.78c11.82-14.88,31.15-35.19,61.02-56.37,0,0-44.74,22.03-63.14,38.53-6.16,5.52-11.79,11.78-16.56,17.67-9.48,11.7-15.55,21.92-15.55,21.92l8.4,.93Z"/></g><g><path class="cls-1" d="M1536.66,1525.94c11.71,6.27,21,12.1,28.38,17.31,11.47,14.45,15.86,23.78,15.86,23.78l9.25-1.02c.78,1.09,1.1,1.67,1.1,1.67,0,0-.12-.63-.38-1.75l8.4-.93s-6.07-10.22-15.54-21.92c-4.17-10.41-10.25-22.06-18.7-30.52-24.32-24.32-47.09-33.18-67.42-42.81,0,0,39.6,5.35,65.28,25.69,7.04,5.57,14.21,13.17,19.77,19.58l3.77,21.08,10.7,1.07c0-1.24-2.24-12.7-5.79-27.91l-8.13-98.91s14.45,27.29,17.66,86.69c3.21,59.4,3.21,94.71,3.21,94.71,0,0-43.35-43.35-88.29-61-44.95-17.66-67.42-20.87-67.42-20.87,0,0,43.34-8.03,88.29,16.05Z"/><path class="cls-1" d="M1586.43,1536.1l-3.77-21.08-14.42-80.59c8.54,17.08,17.48,50.68,23.11,74.83,3.55,15.2,5.79,26.67,5.79,27.91l-10.7-1.07Z"/><path class="cls-1" d="M1590.87,1565.93l-.72,.08-9.25,1.02s-4.38-9.33-15.86-23.78c-11.82-14.88-31.15-35.19-61.01-56.37,0,0,44.74,22.03,63.14,38.53,6.16,5.52,11.79,11.78,16.56,17.67,9.48,11.7,15.54,21.92,15.54,21.92l-8.4,.93Z"/></g><g><path class="cls-1" d="M1440.48,1295.17c13.58,7.27,24.35,14.03,32.9,20.07,13.3,16.75,18.38,27.57,18.38,27.57l10.72-1.18c.91,1.26,1.28,1.94,1.28,1.94,0,0-.15-.73-.44-2.03l9.74-1.07s-7.03-11.86-18.02-25.42c-4.83-12.07-11.88-25.58-21.68-35.38-28.19-28.19-54.59-38.46-78.17-49.63,0,0,45.91,6.2,75.69,29.78,8.16,6.46,16.47,15.27,22.92,22.71l4.37,24.44,12.41,1.24c0-1.44-2.59-14.73-6.7-32.36l-9.43-114.68s16.75,31.64,20.47,100.5c3.72,68.86,3.72,109.81,3.72,109.81,0,0-50.25-50.25-102.37-70.72-52.11-20.47-78.16-24.19-78.16-24.19,0,0,50.25-9.31,102.36,18.61Z"/><path class="cls-1" d="M1498.18,1306.96l-4.37-24.44-16.72-93.43c9.9,19.8,20.26,58.75,26.79,86.76,4.11,17.63,6.7,30.92,6.7,32.36l-12.41-1.24Z"/><path class="cls-1" d="M1503.33,1341.53l-.84,.09-10.72,1.18s-5.08-10.82-18.38-27.57c-13.7-17.25-36.11-40.8-70.74-65.35,0,0,51.87,25.55,73.21,44.67,7.14,6.4,13.67,13.66,19.2,20.49,10.99,13.56,18.02,25.42,18.02,25.42l-9.74,1.07Z"/></g><path class="cls-1" d="M328.83,1484.28c-8.69,2.32-17.4,4.58-26.11,6.8l-13.06,3.36-6.53,1.68-3.26,.84c-1.09,.29-2.18,.53-3.31,.55l-5.58,.09-.06-4.37-.7-48.03,10.46,46.88-5.64-4.28c1.08-.33,2.2-.43,3.32-.49l3.37-.21,6.73-.42,13.46-.83c8.97-.57,17.95-1.1,26.93-1.57Z"/><path class="cls-1" d="M393.35,1476.84c-8.69,2.32-17.39,4.58-26.11,6.8l-13.06,3.36-6.53,1.68-3.26,.84c-1.09,.29-2.18,.53-3.31,.55l-5.58,.09-.07-4.37-.71-48.03,10.46,46.89-5.64-4.28c1.08-.33,2.2-.43,3.32-.49l3.36-.21,6.73-.42,13.46-.83c8.97-.57,17.95-1.1,26.93-1.57Z"/><path class="cls-1" d="M457.87,1468.15c-8.7,2.32-17.4,4.58-26.11,6.8l-13.06,3.36-6.53,1.68-3.27,.84c-1.08,.29-2.18,.53-3.31,.55l-5.58,.09-.06-4.37-.71-48.03,10.46,46.88-5.64-4.28c1.08-.33,2.2-.44,3.32-.5l3.36-.21,6.73-.42,13.46-.83c8.97-.57,17.95-1.1,26.93-1.57Z"/><path class="cls-1" d="M522.39,1460.7c-8.69,2.32-17.4,4.58-26.11,6.8l-13.06,3.35-6.53,1.68-3.27,.84c-1.09,.29-2.18,.53-3.31,.55l-5.58,.09-.06-4.37-.71-48.03,10.46,46.88-5.64-4.28c1.08-.33,2.2-.44,3.32-.5l3.37-.21,6.73-.42,13.46-.83c8.97-.58,17.95-1.11,26.93-1.58Z"/><path class="cls-1" d="M302.78,1419.76c-8.69,2.32-17.39,4.58-26.11,6.8l-13.06,3.35-6.53,1.68-3.27,.84c-1.09,.29-2.18,.53-3.31,.55l-5.58,.09-.06-4.37-.71-48.03,10.46,46.88-5.64-4.27c1.08-.33,2.2-.43,3.32-.5l3.37-.21,6.73-.42,13.46-.83c8.97-.58,17.95-1.1,26.93-1.57Z"/><path class="cls-1" d="M409.79,1254.09c-8.11,2.23-16.23,4.4-24.36,6.53l-12.19,3.22-6.09,1.61-3.04,.8c-1.01,.28-2.04,.51-3.09,.52l-5.61,.04-.03-4.31-.34-44.9,10.09,43.75-5.64-4.28c1.01-.32,2.05-.41,3.1-.46l3.14-.17,6.29-.34,12.59-.69c8.39-.48,16.78-.92,25.18-1.3Z"/><path class="cls-1" d="M385.45,1197.54c-8.11,2.23-16.23,4.4-24.36,6.53l-12.19,3.22-6.09,1.61-3.05,.8c-1.02,.27-2.04,.51-3.09,.52l-5.61,.04-.03-4.31-.34-44.9,10.09,43.75-5.64-4.27c1-.32,2.05-.41,3.1-.46l3.15-.18,6.29-.34,12.58-.69c8.39-.48,16.78-.92,25.18-1.3Z"/><path class="cls-1" d="M1291.93,1252.23c8.4,.38,16.8,.82,25.19,1.3l12.58,.7,6.29,.34,3.15,.18c1.05,.05,2.09,.14,3.1,.46l-5.64,4.28,10.09-43.75-.34,44.9-.03,4.31-5.61-.04c-1.06,0-2.08-.24-3.09-.52l-3.05-.8-6.09-1.61-12.19-3.22c-8.13-2.13-16.25-4.29-24.36-6.53Z"/><path class="cls-1" d="M1316.27,1197.54c8.4,.38,16.8,.82,25.19,1.3l12.58,.69,6.29,.34,3.14,.18c1.05,.05,2.09,.14,3.1,.46l-5.64,4.27,10.09-43.75-.34,44.9-.03,4.31-5.61-.04c-1.06,0-2.08-.24-3.09-.52l-3.04-.8-6.09-1.61-12.19-3.22c-8.13-2.13-16.25-4.3-24.36-6.53Z"/><path class="cls-1" d="M351.95,1097.05c-8.11,2.23-16.23,4.4-24.36,6.53l-12.19,3.22-6.09,1.61-3.05,.8c-1.02,.28-2.03,.51-3.09,.52l-5.61,.04-.03-4.31-.34-44.9,10.09,43.75-5.64-4.27c1.01-.32,2.05-.41,3.1-.46l3.15-.17,6.29-.35,12.59-.69c8.39-.48,16.78-.92,25.19-1.3Z"/><path class="cls-1" d="M1349.77,1097.05c8.4,.38,16.8,.81,25.19,1.3l12.59,.69,6.29,.35,3.15,.17c1.05,.05,2.09,.14,3.1,.46l-5.64,4.27,10.09-43.75-.34,44.9-.03,4.31-5.61-.04c-1.06,0-2.08-.24-3.09-.52l-3.04-.8-6.09-1.61-12.19-3.22c-8.13-2.12-16.25-4.29-24.36-6.53Z"/><path class="cls-1" d="M367.3,1412.32c-8.69,2.32-17.39,4.58-26.1,6.8l-13.06,3.35-6.53,1.68-3.27,.84c-1.09,.28-2.18,.53-3.31,.55l-5.58,.09-.06-4.37-.71-48.03,10.46,46.88-5.64-4.27c1.08-.33,2.2-.43,3.32-.5l3.36-.21,6.73-.42,13.46-.83c8.97-.57,17.95-1.1,26.93-1.57Z"/><path class="cls-1" d="M431.82,1403.63c-8.69,2.32-17.4,4.58-26.1,6.8l-13.06,3.36-6.53,1.68-3.26,.84c-1.09,.29-2.18,.53-3.31,.55l-5.58,.09-.06-4.37-.71-48.03,10.46,46.88-5.64-4.28c1.08-.33,2.2-.43,3.32-.49l3.36-.21,6.73-.42,13.46-.83c8.97-.57,17.95-1.1,26.93-1.57Z"/><path class="cls-1" d="M496.34,1396.19c-8.69,2.32-17.4,4.58-26.11,6.8l-13.06,3.36-6.53,1.68-3.27,.84c-1.09,.29-2.18,.53-3.31,.55l-5.57,.09-.07-4.37-.71-48.03,10.46,46.88-5.64-4.27c1.08-.33,2.2-.43,3.32-.5l3.37-.21,6.73-.42,13.46-.83c8.97-.57,17.95-1.1,26.93-1.57Z"/><path class="cls-1" d="M1395.23,1484.28c8.99,.47,17.96,1,26.93,1.57l13.46,.83,6.73,.42,3.37,.21c1.12,.06,2.24,.17,3.32,.49l-5.64,4.28,10.46-46.88-.71,48.03-.06,4.37-5.58-.09c-1.13-.02-2.22-.26-3.31-.55l-3.26-.84-6.53-1.68-13.06-3.36c-8.71-2.22-17.41-4.48-26.11-6.8Z"/><path class="cls-1" d="M1330.71,1476.84c8.98,.47,17.96,1,26.93,1.57l13.46,.83,6.73,.42,3.37,.21c1.12,.06,2.24,.16,3.32,.49l-5.64,4.28,10.46-46.89-.71,48.03-.06,4.37-5.58-.09c-1.13-.02-2.22-.26-3.31-.55l-3.27-.84-6.53-1.68-13.06-3.36c-8.71-2.22-17.41-4.48-26.11-6.8Z"/><path class="cls-1" d="M1266.19,1468.15c8.99,.47,17.96,1,26.93,1.57l13.46,.83,6.73,.42,3.36,.21c1.12,.06,2.24,.17,3.32,.5l-5.64,4.28,10.46-46.88-.7,48.03-.07,4.37-5.57-.09c-1.13-.02-2.23-.26-3.31-.55l-3.26-.84-6.53-1.68-13.06-3.36c-8.71-2.22-17.41-4.48-26.1-6.8Z"/><path class="cls-1" d="M1201.67,1460.7c8.98,.47,17.96,1,26.93,1.58l13.46,.83,6.73,.42,3.37,.21c1.12,.06,2.24,.16,3.32,.5l-5.64,4.28,10.46-46.88-.71,48.03-.07,4.37-5.58-.09c-1.13-.01-2.22-.26-3.31-.55l-3.26-.84-6.53-1.68-13.06-3.35c-8.71-2.22-17.41-4.48-26.11-6.8Z"/><path class="cls-1" d="M1421.29,1419.76c8.99,.47,17.96,1,26.93,1.57l13.46,.83,6.73,.42,3.36,.21c1.12,.06,2.24,.17,3.32,.5l-5.64,4.27,10.46-46.88-.71,48.03-.06,4.37-5.58-.09c-1.13-.02-2.23-.26-3.31-.55l-3.27-.84-6.53-1.68-13.06-3.35c-8.71-2.22-17.41-4.48-26.11-6.8Z"/><path class="cls-1" d="M1356.77,1412.32c8.99,.47,17.96,1,26.93,1.57l13.46,.83,6.73,.42,3.37,.21c1.12,.06,2.24,.17,3.32,.5l-5.64,4.27,10.46-46.88-.71,48.03-.06,4.37-5.58-.09c-1.13-.02-2.22-.26-3.31-.55l-3.27-.84-6.53-1.68-13.06-3.36c-8.71-2.22-17.41-4.48-26.11-6.8Z"/><path class="cls-1" d="M1292.25,1403.63c8.99,.47,17.96,1,26.93,1.57l13.46,.83,6.73,.42,3.37,.21c1.12,.06,2.24,.16,3.32,.49l-5.64,4.28,10.46-46.88-.71,48.03-.06,4.37-5.58-.09c-1.13-.02-2.22-.27-3.31-.55l-3.27-.84-6.53-1.68-13.06-3.36c-8.71-2.22-17.41-4.48-26.11-6.8Z"/><path class="cls-1" d="M1227.73,1396.19c8.99,.47,17.96,1,26.93,1.57l13.46,.83,6.73,.42,3.36,.21c1.12,.06,2.24,.17,3.32,.5l-5.64,4.27,10.46-46.88-.71,48.03-.07,4.37-5.58-.09c-1.13-.02-2.22-.26-3.31-.55l-3.26-.84-6.53-1.68-13.06-3.36c-8.71-2.22-17.41-4.48-26.1-6.8Z"/></g><g><path class="cls-2" d="M1220.38,252.11c-83.85-129.09-272.82-175.56-357.06-175.59-84.61-.03-276.91,46.48-360.78,175.59-89.26,137.42-104.14,328.28-104.14,328.28,173.49,54.69,384.78,72.71,450.61,72.66,65.39-.05,318.92-12.4,475.51-72.66,0,0-14.88-190.86-104.14-328.28Z"/><path class="cls-1" d="M848.76,659.3c-69.17,0-279.08-18.37-452.22-72.95l-4.74-1.49,.39-4.95c.15-1.92,16.03-194.03,105.13-331.2,47.29-72.8,125.59-115.55,182.95-138.59,73.13-29.38,142.47-39.85,182.98-39.85,40.25,.02,108.9,10.5,181.11,39.86,56.58,23.01,133.95,65.73,181.27,138.58,89.1,137.17,104.98,329.28,105.13,331.2l.36,4.64-4.35,1.67c-154.57,59.49-402.93,73.03-477.75,73.08h-.26Zm-443.66-83.36c170.83,52.98,375.73,70.87,443.66,70.87h.25c73.51-.05,315.77-13.18,468.86-70.57-3.01-29.93-23.03-198.04-102.72-320.73-84.74-130.45-273.62-172.72-351.82-172.75-76.28,0-271.58,43.5-355.54,172.75-79.47,122.35-99.59,289.7-102.69,320.43Z"/></g><path class="cls-1" d="M780.98,88.93s-46.39,44.95-71.37,140.85c-24.98,95.89-24.98,197.78-24.98,197.78l21.41-3s0-119.87,21.41-200.78c21.41-80.91,53.53-134.85,53.53-134.85Z"/><path class="cls-1" d="M941.56,88.93s46.39,44.95,71.37,140.85c24.98,95.89,24.98,197.78,24.98,197.78l-21.41-3s0-119.87-21.41-200.78c-21.41-80.91-53.53-134.85-53.53-134.85Z"/><g><path class="cls-2" d="M771.67,89.88s42.82-12.8,46.39-35.21l3.57-22.4h57.1s-3.57,12.8,3.57,25.6c7.14,12.8,49.96,32.01,49.96,32.01l-82.08,32.01-78.51-32.01Z"/><path class="cls-1" d="M850.14,126.68l-91.86-37.45,12.11-3.63c11.16-3.35,40.7-15.56,43.26-31.64l4.17-26.16h66.78l-1.58,5.66c-.03,.09-2.94,11.29,3.17,22.23,4.68,8.39,31.85,22.92,47.89,30.11l9.71,4.36-93.65,36.52Zm-66.11-36.58l66.18,26.98,70.77-27.6c-13.56-6.67-36.93-19.29-42.59-29.44-4.97-8.91-5.34-17.78-4.88-23.31h-48.08l-2.97,18.65c-2.75,17.28-24.67,29-38.43,34.73Z"/></g><g><polygon class="cls-1" points="542.88 630.31 472.04 707.6 459.92 821.02 459.92 855.81 438.51 941.45 427.8 986.94 449.22 1045.82 464.8 1078.88 465.27 1171.61 494.71 1332.18 556.11 1443.42 609.79 1511.49 692.75 1591.77 716.8 1612.43 771.85 1621.75 871.21 1630.46 989.99 1612.23 1115.6 1492.75 1200.17 1376.78 1236.03 1206.4 1246.62 1062.5 1270.37 1007.93 1270.82 952.15 1249.41 853.13 1235.52 707.6 1170.93 616.5 1064.75 663.12 897.35 690.94 748.95 679.18 631.2 660.44 542.88 630.31"/><g><path class="cls-2" d="M517.36,879.19s73.21,0,81.92-1.74c8.71-1.74,67.98,15.69,67.98,15.69,0,0,34.86,10.46,54.03,33.12,19.18,22.66,26.15,40.09,26.15,40.09,0,0-31.37-13.94-69.72-17.43-38.35-3.49-76.7-3.49-92.38-13.94-15.69-10.46-55.78-36.6-55.78-36.6l-12.2-19.17Z"/><path class="cls-2" d="M1186.7,879.19s-73.21,0-81.93-1.74c-8.72-1.74-67.98,15.69-67.98,15.69,0,0-34.86,10.46-54.04,33.12-19.17,22.66-26.15,40.09-26.15,40.09,0,0,31.38-13.94,69.72-17.43,38.35-3.49,76.7-3.49,92.38-13.94,15.69-10.46,55.78-36.6,55.78-36.6l12.2-19.17Z"/><path class="cls-2" d="M856.48,1307.54s-57.9-7.68-104.38-19.3c-46.48-11.62-91.8-43-126.66-36.02-34.86,6.97-59.26,49.97-59.26,68.56s8.14,55.78,37.19,72.05c29.05,16.27,74.37,20.92,95.29,4.65,20.92-16.27,38.35-48.81,62.75-53.45,24.4-4.65,62.75,30.21,97.61,26.73,0,0,53.45-34.86,85.99-24.4,0,0,25.57,6.97,49.97,45.32,24.41,38.35,111.56,13.94,131.31-22.08,16.67-30.4,23.24-102.26-27.89-111.56-51.13-9.3-110.39,19.75-148.74,34.86-38.35,15.11-93.17,14.65-93.17,14.65Z"/><path class="cls-1" d="M646.29,1252.39s-24.35,35.85-20.86,96.27c3.49,60.43,29.05,125.5,29.05,125.5,0,0,8.13-38.35,10.46-56.94,2.32-18.59,18.59-77.86,24.4-95.29,5.81-17.43,25.56-45.32,25.56-45.32l-68.61-24.23Z"/><path class="cls-1" d="M1059.75,1252.39s24.35,35.85,20.87,96.27c-3.49,60.43-29.05,125.5-29.05,125.5,0,0-8.13-38.35-10.46-56.94-2.32-18.59-18.59-77.86-24.4-95.29-5.81-17.43-25.57-45.32-25.57-45.32l68.61-24.23Z"/><path class="cls-2" d="M853.83,1635.6h-.06s-.06,0-.06,0h-.15c-.09-.01-.18-.01-.28-.01-25.73,0-119.5-7.62-137.32-18.32-16.63-9.97-169.09-139.95-208.59-240.49-37.49-95.42-49.29-233.46-49.29-264.01,0-23.95-14.06-68.5-27.29-98.27-11.62-26.16,1.96-78.05,12.88-119.76,3.2-12.22,5.96-22.78,7.58-30.86,6.76-33.79,6.84-157.75,6.84-159v-2.71l82.73-90.26,5.04,3.66c.37,.26,38.53,27.41,119.61,47.68,77.39,19.34,177.23,20.62,188.36,20.7,11.03-.08,110.87-1.36,188.26-20.7,81.07-20.27,119.24-47.42,119.61-47.69l5.03-3.63,4.2,4.57,78.53,85.67v2.71c0,1.25,.08,125.21,6.84,159,1.62,8.08,4.38,18.64,7.58,30.86,10.91,41.7,24.5,93.6,12.88,119.76-13.23,29.77-27.29,74.32-27.29,98.27,0,30.55-11.81,168.59-49.29,264.01-39.5,100.54-191.96,230.51-208.59,240.49-18.1,10.86-99.2,18.32-137.06,18.32h-.69ZM472.04,707.6c-.04,18.99-.57,126.34-7.1,159.02-1.7,8.48-4.51,19.22-7.76,31.66-9.26,35.39-23.26,88.88-13.62,110.56,13.81,31.08,28.49,78.06,28.49,103.93,0,17.82,9.01,158.84,48.33,258.91,37.57,95.64,187.25,224.31,202.78,233.63,12.93,7.76,99.56,16.33,129.96,16.33h.67s.22,0,.22,0h.67c42.66,0,116.47-8.37,129.74-16.33,15.53-9.32,165.21-137.99,202.78-233.63,39.32-100.08,48.33-241.09,48.33-258.91,0-25.87,14.68-72.86,28.49-103.93,9.64-21.69-4.36-75.17-13.62-110.56-3.25-12.44-6.06-23.18-7.76-31.66-6.54-32.68-7.06-140.02-7.11-159.02l-70.85-77.29c-13.2,8.26-51.53,29.56-119.21,46.47-78.96,19.74-180.33,21.03-191.64,21.12-11.4-.08-112.78-1.38-191.74-21.12-67.67-16.92-106.01-38.22-119.21-46.47l-70.85,77.29Z"/><path class="cls-2" d="M755.2,976.46l-10.23-5.51c-24.97-13.45-49.99-15.92-78.96-18.79-21.57-2.13-46.02-4.55-73.36-12.15-48.78-13.55-78.38-56.06-79.61-57.86l-7.09-10.35,12.34,2.25c13.77,2.5,23.88,1.18,35.58-.35,19.78-2.59,44.4-5.81,97.22,7.39,85.77,21.44,100.84,81.51,101.44,84.06l2.66,11.31Zm-225.83-90.65c11.36,12.94,34.7,35.4,66.09,44.12,26.47,7.35,49.4,9.62,71.59,11.82,24.56,2.43,47.96,4.75,70.92,14.3-8.44-17.54-31.5-50.34-89.4-64.82-50.89-12.73-73.44-9.77-93.32-7.17-8.42,1.1-16.51,2.16-25.87,1.75Z"/><path class="cls-2" d="M806.29,870.83c-16.61,8.38-33.97,18.66-53.29,13-14.33-4.2-25.36-15.1-34.86-26.1-14.82-17.16-26.97-34.91-47.47-45.9-1.2-.64-1.6,2.23-.7,2.81,26.34,16.78,36.69,48.57,60.87,67.77,25.35,20.13,51.73,13.27,77.17-3.27,2.82-1.83,2.14-10.26-1.72-8.31h0Z"/><path class="cls-2" d="M717.63,861.03c-18.5-8.74-38.54-13.6-57-23.05-17.59-9.01-34.55-19.29-52.68-27.21-18.34-8.02-36.71-8.67-55.46-14.09-22.2-6.41-41.52-19.89-56.73-37.02-.62-.7-1.06,.59-.68,1.09,11.01,14.66,25.05,27.58,41.47,35.93,19.58,9.94,41.61,14.02,61.87,22.34,20.79,8.53,40.38,19.54,60.6,29.29,17.15,8.27,38.75,19.59,58.33,17.05,1.89-.25,1.77-3.64,.28-4.34h0Z"/><path class="cls-2" d="M786.58,889.69c32.34,15.66,13.55,57.85,4.75,82.87-6.89,19.61-13.67,39.69-14.94,60.6-1.57,25.79,5.73,57.51,29.49,71.57,1.76,1.04,1.84-3.01,.97-3.86-42.47-41.44-21.64-94.1-4.7-142.47,7.6-21.7,21.05-71.7-15.1-76.04-3.3-.4-2.68,6.28-.47,7.34h0Z"/><path class="cls-2" d="M819.75,886.19c1.8,41.71,1.44,83.41-1.29,125.08-1.26,19.33-3.33,38.65-6.28,57.8-1.19,7.71-1.42,18.19-5.1,25.14-10.59,20.02-36.15,6.24-51.57,3.12-16.18-3.27-36.22-2.62-46.16,12.89-8.82,13.76-4.64,31.2,2.71,44.54,7.27,13.2,24.44,36.43,40.28,39.55,10.69,2.11,19.55-6.15,16.55-16.74-.95-3.38-3.69-1.25-3.27,1.47,3.01,19.81-21.55,.88-23.21-.58-5.05-4.4-9.38-9.81-13.52-15.02-8.7-10.97-14.77-20.2-14.2-34.54,.45-11.37,3.37-16.45,14.51-20.09,6.31-2.06,13.35-1.85,19.83-1.01,11.02,1.43,21.4,6.01,32.38,7.58,31.56,4.51,35.45-22.64,38.19-47.51,6.54-59.16,9.34-122.91,1.92-182.09-.2-1.57-1.84-.96-1.78,.41h0Z"/><path class="cls-2" d="M711.94,1120.77c18.18,29.11,43.16,54.81,68.83,77.4,18.34,16.14,54.81,52.77,81.3,39.46,3.34-1.67,3.13-9.42-1.11-9.73-10.24-.76-18.97-.71-28.43-5.3-8.67-4.21-16.36-10.34-24.17-15.91-9.95-7.09-19.68-14.23-29.09-22.05-23.81-19.78-47.33-41.19-66.05-65.95-1.09-1.43-1.89,1.1-1.29,2.07h0Z"/><path class="cls-2" d="M766.49,889.85c1.04,11.94,4.14,23.63,4.47,35.64,.45,16.02-3.7,29.71-10.58,43.9-7.83,16.15-17.63,31.46-22.8,48.78-7.73,25.9-7.34,69.88,12.44,90.76,4.58,4.84,6.16-6.17,5.37-8.63-3.25-10.1-9.46-18.43-11.82-29.06-2.55-11.46-3.06-23.44-1.38-35.06,2.87-19.86,12.69-37.13,21.08-55.03,14.07-30.04,17.64-60.81,5.99-92.53-.82-2.21-2.93-.51-2.77,1.22h0Z"/><path class="cls-2" d="M501.99,834.79c-23.09,43.02-7.74,101.76,28.02,133.15,24.17,21.22,56.57,27.37,87.64,30.39,20.65,2.01,41.4,3.03,62.14,3.19,11.11,.08,56.72-7.78,59.89,8.3,.81,4.1,5.55,4.28,5.93-.15,1.97-23.3-27.83-19.61-43.06-19.22-38.64,.98-79.46,.68-117.4-7.54-68.01-14.74-104.45-80.31-81.29-146.01,.39-1.11-.89-3.94-1.88-2.1h0Z"/><path class="cls-2" d="M502.48,838.07c17.72,18.25,53.95,9.04,75.95,5.99,32.05-4.43,58.59-4.49,89.47,6.54,2.45,.88,2.7-3.93,1.26-5.01-19.15-14.32-45.73-14.43-68.52-12.13-28.35,2.87-70.9,17.84-97.06,1.52-1.74-1.09-2.02,2.14-1.1,3.08h0Z"/><path class="cls-2" d="M700.63,862.78c12.96,9.39,26.78,17.23,38.59,28.17,12.89,11.95,20.52,26.22,31.07,39.8,2.11,2.72,3.45-1.78,2.84-3.5-10-28.2-42.62-60-71.85-67.08-1.29-.31-1.46,2.02-.65,2.6h0Z"/><path class="cls-2" d="M752.83,887.33c.05,3.81,.1,15.55,4.87,17.08,3.9,1.25,4.51-4.51,2.64-6.8-.54-.66-1.08-.98-1.93-.72-.17,.05-.34,.1-.51,.15-1.62,.49-1.52,3.3-1.07,4.44,1.73,4.39,3.34,8.98,6.05,12.87,1.28,1.84,2.47-.86,2.22-2.07-.98-4.85-3.01-9.39-4.94-13.92-.36,1.48-.71,2.96-1.07,4.44,.17-.06,.34-.12,.51-.18-.64-.24-1.29-.48-1.93-.72,.28,.33-.83-8.02-1.14-9.38-.43-1.92-.77-3.85-1.18-5.77-.46-2.19-2.54-1.37-2.52,.58h0Z"/><path class="cls-2" d="M744.17,1101.33c19.69,19.48,41.56,37.05,62.4,55.29,13.26,11.59,27.54,31.57,46.68,31.66,2.12,.01,2.24-4.73,.33-5.15-20.98-4.56-36.88-24.51-52.71-38.16-18.32-15.79-36.17-32.54-55.47-47.11-1.8-1.36-2.3,2.41-1.24,3.47h0Z"/><path class="cls-2" d="M562.79,738.32c12.39,20.76,33.66,36.48,57.16,42.34,30,7.48,62.44-1.34,90.97,13.09,23.49,11.88,43.58,39.32,73.06,34.92,18.14-2.7,28.62-16.98,26.5-34.62-.22-1.81-1.95-1-1.99,.46-.5,19.99-23.75,26.96-39.83,23.1-11.26-2.7-21.1-9.22-30.6-15.56-15.12-10.09-29.88-19.44-48.16-22.48-22.86-3.8-46.3,.23-69.09-4.43-24.2-4.95-42.47-19.07-56.85-38.71-.97-1.32-1.69,1-1.17,1.88h0Z"/><path class="cls-2" d="M477.5,923.02c-20.88,41.49,14.31,84.1,51.8,99.04,27.71,11.04,58.48,13.94,87.75,18.37,15.74,2.38,38.9,1.67,52,11.61,17.18,13.03,13.91,36.66,12.78,55.37-.11,1.76,1.75,2.19,2.19,.4,4.83-19.66,7.81-44.85-7.24-61.13-14.98-16.2-46.33-15.07-66.31-18.09-30.24-4.58-62.2-7.34-90-21.06-30.81-15.21-54.85-47.77-41.67-83.04,.29-.79-.66-2.72-1.3-1.45h0Z"/><path class="cls-2" d="M645.02,1250.55c-46.66,68.55-19.21,160.67,8.59,230.44,2.14,5.39,6.34-.81,4.89-4.57-28.48-73.74-46.1-148.25-10.68-222.73,.83-1.73-1.1-5.64-2.8-3.13h0Z"/><path class="cls-2" d="M657.08,1481.09c8.72-31.1,9.54-64.58,16.51-96.2,7.98-36.22,20.69-70.17,41.7-100.88,2.64-3.86-1.35-13.34-5.41-7.8-20.58,28.11-32.36,61.54-40.27,95.19-8.15,34.62-15.85,73.13-14.78,108.83,.04,1.3,1.72,2.76,2.25,.87h0Z"/><path class="cls-2" d="M632.92,1405.79c-29.73-14.16-63.5-37.2-63.39-74.3,.11-35.63,33.77-71.23,69.32-71.7,37.43-.49,71.85,24.86,106.11,36.95,34.73,12.25,74.61,21.6,111.65,19.58,4.8-.26,4.37-10.12-.26-10.62-27.73-2.96-54.69-4.7-81.88-11.8-24.65-6.44-47.8-16.07-70.87-26.71-34.71-16-73.71-30.18-106.91-3.38-23.84,19.24-39.64,51.59-32.86,82.33,7.36,33.37,36.43,56.89,68.05,66.24,3.28,.97,3.5-5.41,1.03-6.59h0Z"/><path class="cls-2" d="M556.76,1171.26c-3.49-32.83-22.55-59.66-45.45-82.33-12.76-12.65-26.44-24.34-39.24-36.95-7.58-7.46-14.81-15.25-21.17-23.79-5.06-6.81-8.54-14.94-15.13-20.35-4.19-3.44-6.02,4.05-5.56,6.84,4.57,27.66,35.4,52.04,55.13,69.72,27.8,24.93,57.2,50.74,68.34,87.58,.74,2.44,3.35,1.84,3.08-.71h0Z"/><path class="cls-2" d="M493.46,1081.58c-13.03,48.05-21.19,99.84-19.34,149.72,.04,1.16,1.47,1.73,1.59,.29,4.27-50.29,9.56-98.95,20.61-148.28,.43-1.9-2.13-4.43-2.85-1.73h0Z"/><path class="cls-2" d="M511.99,1102.72c-6.64,36.15-9.79,73.31-12.77,109.92-2.81,34.45-6.84,70.14-5.07,104.68,.12,2.23,2.8,3.36,3.07,.55,3.5-35.51,2.92-71.57,5.78-107.2,2.88-35.79,7.94-71.26,11.52-106.95,.21-2.06-2.06-3.64-2.54-1h0Z"/><path class="cls-2" d="M533.52,1127.7c-6.89,53.85-9.14,109.57-7.42,163.8,1.65,52.02,8.28,105.36,26.25,154.47,1.28,3.5,4.55,.06,3.76-2.55-15.69-52.01-24.46-103.95-25.85-158.34-1.34-52.52,4.3-104.58,5.38-157,.03-1.6-1.88-2.25-2.12-.38h0Z"/><g><path class="cls-2" d="M586.61,1236.52c-39.56,20.75-62.12,71.77-53.12,115.26,9.9,47.85,59.37,90.33,107.33,96.13,2.8,.34,2.95-6.27,.44-6.86-42.63-10.02-84.82-38.63-100.16-81.39-15.65-43.6,8.62-95.1,46.45-118.6,1.61-1,1.11-5.62-.94-4.55h0Z"/><path class="cls-2" d="M587.54,1241.02c48.61-18.49,94.23-6.56,138.13,17.68,19.39,10.71,38.52,20.9,60.31,25.86,23.19,5.28,47.14,5.87,70.82,6.02,3,.02,2.88-6.75-.17-6.81-27.49-.47-55.44-1.08-81.9-9.45-22.58-7.14-42.45-20.23-63.42-30.9-38.15-19.4-85.49-28.69-124.69-6.85-1.61,.9-1.26,5.27,.92,4.44h0Z"/></g><path class="cls-2" d="M523.89,760.09c7.17,17.31,21.1,39.26,39.46,46.19,2.32,.88,2.34-3.59,1.15-4.61-6.89-5.96-14.58-10.84-21.22-17.14-7.81-7.4-13.25-16.24-17.82-25.91-.8-1.7-2.06,.27-1.57,1.47h0Z"/><path class="cls-2" d="M546.64,762.59c7.65,19.58,21.36,39.47,40.37,49.51,1.55,.82,1.76-2.66,.85-3.4-16.72-13.7-30.71-27.42-39.74-47.49-.73-1.62-1.92,.26-1.48,1.38h0Z"/><path class="cls-2" d="M567.66,767.23c12.01,22.51,29.37,46.11,51.87,59.05,1.7,.98,1.99-3,.97-3.86-20.42-17.1-38.44-33.19-51.45-56.91-.73-1.34-1.88,.79-1.39,1.72h0Z"/><path class="cls-2" d="M640.93,832.5c-9.94-8.29-19.36-17.19-27.63-27.17-7.56-9.13-13.12-19.36-20.02-28.91-1.21-1.67-2.2,1.08-1.75,2.16,9.37,22.43,29.07,42.73,48.26,57.11,1.6,1.2,2.26-2.24,1.13-3.18h0Z"/><path class="cls-2" d="M649.43,811.7c15.52,5.98,23.08,20.46,33.34,32.43,6.92,8.07,16.17,17.1,27.67,15.79,1.87-.21,2.05-4.1,.29-4.61-15.08-4.4-22.57-12.86-32.82-24.34-8.09-9.06-16.22-18-28.11-21.69-1.17-.36-1.35,2.05-.38,2.43h0Z"/><path class="cls-2" d="M631.55,810.66c8.01,6.35,15.86,12.52,22.6,20.27,6.08,6.99,11.3,14.79,17.62,21.56,1.46,1.56,2.43-2.01,1.88-3.03-8.76-16.35-26.04-30.77-41.44-40.65-.99-.64-1.33,1.32-.66,1.85h0Z"/><path class="cls-2" d="M745.3,829.53c9.04,13.31,24.88,20.32,40.76,15.75,13.61-3.91,24.69-18.73,22.63-32.99-.3-2.07-2.41-2.52-3.25-.56-5.04,11.71-9.15,22.96-22.29,27.99-13.55,5.18-28.41-.24-37-11.56-.71-.93-1.29,.73-.85,1.37h0Z"/><path class="cls-2" d="M746.19,844.58c12.45,10.2,29.09,17.17,44.93,10.88,10.83-4.3,20.38-15.21,17.49-27.41-.44-1.85-2.6-2.88-3.35-.58-3.94,12.1-9.64,21.88-23.22,24.12-12.89,2.12-24.33-3.04-35.34-9.02-.9-.49-1.04,1.57-.5,2.01h0Z"/><path class="cls-2" d="M748.58,856.75c17.73,11.21,62.67,19.88,61.01-14-.17-3.38-3.43-4.48-4.34-.78-2.89,11.7-14.11,19.76-26.03,20.07-10.65,.27-20.11-4.82-30.09-7.49-1.06-.28-1.27,1.75-.55,2.2h0Z"/><path class="cls-2" d="M721.38,841.78c12.01,17.42,29.78,34.09,51.48,37.9,14.28,2.51,33.22-2.34,34.5-19.14,.19-2.4-2.73-9.13-5.25-4.43-18.87,35.11-63.63,4.74-79.49-16.33-1.02-1.36-1.89,1.06-1.24,2h0Z"/><path class="cls-2" d="M570.93,1247.53c-10.27-27.96-14.61-54.41-9.53-84.06,2.5-14.58,6.91-28.87,13.58-42.09,5.53-10.97,13.7-20.02,19.65-30.61,1.11-1.99,.24-7.95-3.02-5.62-21.97,15.75-32.96,53.17-36.16,78.71-3.54,28.23,.06,60.46,12.91,86.07,1.39,2.78,3.28-.46,2.57-2.4h0Z"/><path class="cls-2" d="M683.2,1233.32c-4.27-23.12-23.37-42.09-38.48-58.9-23.09-25.67-44.74-52.67-50.85-87.54-1.06-6.02-6.71-3.53-6.74,1.56-.2,28.29,19.61,56.51,37.27,77.18,8.81,10.3,18.7,19.46,28.08,29.21,11.92,12.39,20.04,25.54,29.44,39.68,.73,1.09,1.41-.52,1.28-1.2h0Z"/><path class="cls-2" d="M586.38,1134.95c-18.26,32.38-14.36,72.91,6.33,103.07,1.89,2.76,3.8-2.07,2.48-3.99-20.56-29.87-21.75-64.61-7.17-97.23,.45-1.01-.77-3.38-1.65-1.84h0Z"/><path class="cls-2" d="M585.8,1135.03c-6.21,42.36,45.43,55.9,52.7,92.96,.92,4.67,5.43,1.78,4.54-2.04-8.12-34.92-59.35-52.03-54.69-89.93,.26-2.08-2.16-3.62-2.54-1h0Z"/><path class="cls-2" d="M492.29,944.82c-17.44-40.85-18.94-80.67-5.29-122.9,7.68-23.76,17.79-53.81,2.83-76.8-1.84-2.83-3.99,1.3-3.45,3.21,6.82,24.03,4.04,43.27-2.99,66.91-4.69,15.79-9.13,31.29-10.3,47.81-2.06,28.84,3.82,58.29,17.56,83.77,.89,1.64,2.08-.98,1.64-2.02h0Z"/><path class="cls-2" d="M613.19,1034.94c-12.39,37.35,2.53,76.6,26.15,106.05,13.66,17.04,30.28,30.89,46.54,45.31,10.94,9.7,20.63,19.71,26.68,33.21,5.3,11.8,6.47,24.46,10.52,36.55,1.03,3.1,3.82,.59,3.73-1.64-1.59-37.55-26.32-61.31-52.67-84.41-38.65-33.87-71.94-78.77-58.32-132.85,.47-1.88-1.66-5.12-2.62-2.22h0Z"/><path class="cls-2" d="M773.99,1545.56c-12.31-19.19-25.06-38.04-35.72-58.22-9.77-18.5-17.59-37.81-26.88-56.5-2.13-4.29-4.85,.74-3.9,3.64,13.44,40.72,39.07,80.52,64.01,115.07,2.01,2.78,3.69-2.1,2.48-3.99h0Z"/><path class="cls-2" d="M764.63,1478.73c-6.49-10.63-11.96-21.86-16.5-33.46-3.52-9.02-4.81-19.53-10.22-27.57-1.65-2.46-3.5,.58-3.51,2.34-.12,21.04,16.83,44.62,28.89,60.85,1.12,1.5,1.95-1.15,1.34-2.15h0Z"/><path class="cls-2" d="M776.64,1450.39c-5.97-8.32-11.21-17.72-14.46-27.44-2.63-7.86-2.74-17.04-6.91-24.23-1.26-2.17-3.25-.08-3.52,1.52-1.52,8.94,2.81,18.43,6.48,26.41,4.46,9.73,9.91,18.19,16.79,26.36,1.45,1.72,2.5-1.4,1.63-2.62h0Z"/><path class="cls-2" d="M711.63,1490.58c-5.57-15.79-10.26-31.73-15.26-47.7-1.61-5.14-6.38,.58-4.77,4.46,6.2,14.98,12.59,29.71,18.22,44.93,.75,2.02,2.3-.3,1.81-1.69h0Z"/><path class="cls-2" d="M690.02,1486.17c-6.56-14.27-12.1-28.88-18.95-43.01-3.07-6.33-8.11,1.05-5.96,5.57,1.19,2.5,2.26,4.65,4.48,6.34,2.04,1.54,3.28-1.35,3.27-3-.02-3.2-.73-5.91-1.79-8.91-1.99,1.86-3.97,3.72-5.96,5.57,7.22,13.56,15.57,26.28,23.08,39.69,1.01,1.8,2.37-1.09,1.83-2.26h0Z"/><path class="cls-2" d="M951.19,976.46l2.66-11.31c.6-2.55,15.66-62.61,101.43-84.06,52.82-13.21,77.43-9.98,97.22-7.39,11.7,1.54,21.81,2.85,35.59,.35l12.34-2.25-7.09,10.35c-1.24,1.8-30.83,44.31-79.61,57.86-27.34,7.6-51.79,10.02-73.35,12.15-28.97,2.87-53.99,5.34-78.96,18.79l-10.23,5.51Zm171.16-94.67c-15.4,0-35.28,2.14-64.53,9.45-57.89,14.47-80.95,47.27-89.4,64.82,22.96-9.55,46.36-11.87,70.92-14.3,22.18-2.2,45.12-4.47,71.59-11.82,31.47-8.74,54.77-31.18,66.11-44.12-9.36,.42-17.47-.64-25.89-1.74-8.46-1.11-17.4-2.28-28.8-2.28Z"/><path class="cls-2" d="M906.48,761.79c-12.4,20.45-12.72,43.03-12.27,66.34,.31,16.03,5.19,45.21-9.28,56.6-28.65,22.56-29.19-31.72-28.28-46.28-2.31,.06-4.62,.11-6.92,.17,.79,14.22-.04,68.47-28.29,45.48-13.77-11.2-8.87-40.41-8.42-56.1,.65-22.8,1.06-47.35-12.89-66.66-1.3-1.8-2.47,1.15-1.91,2.36,11.57,24.64,9.37,49.25,7.86,75.62-.92,16.19-2.68,37.49,8.68,50.91,8.35,9.86,23.05,13.31,32.52,3.03,12.32-13.36,10.39-38.42,9.37-54.8-.41-6.54-6.57-6.24-6.92,.17-.89,15.83-2.21,37.2,7.24,51.13,8.19,12.07,23.18,11.67,33.02,1.56,11.56-11.88,10.66-31.34,9.9-46.58-1.37-27.63-6.44-55.71,7.84-81.11,.52-.92-.43-3.19-1.26-1.82h0Z"/><path class="cls-2" d="M897.89,878.76c23.56,15.28,48.87,23.96,73.76,6.63,26.84-18.69,36.99-53.01,64.6-70.62,1.02-.65,.71-3.63-.61-2.93-21.85,11.69-34.11,31.27-50.33,49.11-8.83,9.71-19.22,19.24-32.17,22.92-19.36,5.49-36.61-4.67-53.25-13.08-3.49-1.77-4.5,6.34-2,7.97h0Z"/><path class="cls-2" d="M989.15,865.37c19.62,2.5,41.33-8.83,58.47-17.1,20.22-9.76,39.84-20.73,60.63-29.3,20.21-8.33,42.19-12.37,61.72-22.31,16.38-8.34,30.39-21.29,41.36-35.92,.31-.41-.12-1.76-.64-1.18-14.19,15.96-31.53,28.41-51.84,35.46-19.1,6.64-39.1,6.7-58.13,14.67-19.11,7.99-36.82,18.91-55.22,28.34-18.4,9.43-38.44,14.25-56.85,23.02-1.57,.75-1.33,4.09,.49,4.32h0Z"/><path class="cls-2" d="M919.15,882.35c-36.14,4.31-22.39,54.48-14.82,76.15,16.96,48.58,37.5,100.84-4.88,142.39-.91,.9-.59,4.83,1.16,3.81,25.01-14.72,31.59-48.75,29.06-75.55-1.84-19.55-8.26-38.29-14.71-56.7-8.78-25.06-27.4-67,5.02-82.79,2.31-1.12,2.4-7.7-.83-7.31h0Z"/><path class="cls-2" d="M884.84,885.82c-7.54,59.88-4.86,124.9,2.29,184.7,3.01,25.17,8.29,50.15,39.6,44.56,10.43-1.86,20.37-5.94,30.92-7.28,5.25-.66,10.12-.7,15.34,.26,9.26,1.71,18.96,10.32,21.2,19.95,2.43,10.42-8.95,25.24-14.98,33.19-4.29,5.65-9.91,12.54-15.41,17.34-3.93,3.43-25.53,17.31-22.98,.42,.3-2.03-2.31-5.03-3.19-1.94-2.94,10.34,4.86,19.25,15.92,17.42,16.27-2.69,32.7-25.3,40.36-38.63,7.61-13.23,11.9-30.61,3.58-44.53-9.68-16.19-29.71-17.34-46.37-14.01-11.34,2.26-25.48,9.65-37.29,7.33-17.49-3.45-17.61-22.23-19.69-35.7-3.14-20.43-5.21-41.05-6.46-61.68-2.45-40.35-2.78-80.69-1.04-121.06,.06-1.37-1.6-1.91-1.8-.33h0Z"/><path class="cls-2" d="M993.11,1118.74c-18.77,24.78-42.37,46.21-66.23,66-8.71,7.23-17.66,13.93-26.89,20.46-8.58,6.06-16.9,12.92-26.44,17.46-9.52,4.53-18.21,4.48-28.38,5.25-4.41,.33-3.79,8.2-.63,9.78,26.52,13.2,62.9-23.36,81.3-39.6,25.64-22.62,50.49-48.21,68.64-77.35,.62-.99-.3-3.42-1.38-2h0Z"/><path class="cls-2" d="M935.61,1209.94c-20.31,25.5-49.25,42.68-82.49,42.38-33.4-.3-60.62-19-81.83-43.29-1.89-2.17-3.13,1.77-2.07,3.32,18.75,27.31,50.47,46.04,84.05,45.82,33.68-.22,63.76-20.6,83.39-46.72,.55-.74-.22-2.56-1.05-1.52h0Z"/><path class="cls-2" d="M937.08,888.69c-12.07,32.58-7.52,63.99,7.13,94.6,8.22,17.16,17.37,33.97,20.07,53.1,1.63,11.59,1.05,23.64-1.54,35.06-2.41,10.63-8.66,18.88-11.89,29.04-.88,2.77,1.27,13.06,5.78,8.35,9.85-10.25,13.35-28.67,15.37-42.47,2.41-16.53,1.31-33.57-3.69-49.53-5.16-16.46-14.42-31.1-21.92-46.52-5.94-12.21-10.65-24.65-10.99-38.44-.35-14.05,3.26-27.58,4.47-41.48,.15-1.72-1.78-4.42-2.79-1.7h0Z"/><path class="cls-2" d="M1202.56,836.94c23.16,65.39-13.41,131.25-81.14,145.81-36.09,7.76-74.48,8.43-111.27,7.84-14.37-.23-51.51-6.55-49.45,17.99,.38,4.48,4.99,6.53,6.07,1.1,3.07-15.44,46.21-8.12,56.8-8.15,19.73-.06,39.46-.92,59.12-2.62,32.39-2.8,66.45-8.05,92.18-29.6,36.89-30.89,52.88-90.71,29.66-134.2-1.12-2.11-2.49,.35-1.96,1.84h0Z"/><path class="cls-2" d="M1203.01,834.83c-25.92,16.09-66.46,2.02-94.66-1.08-23.67-2.59-51.33-3.06-71.23,11.89-1.51,1.14-.9,5.8,1.5,4.94,31.09-11.06,57.24-10.98,89.52-6.52,22.25,3.08,58.08,12.36,75.84-6.02,.73-.76,.49-4.12-.98-3.21h0Z"/><path class="cls-2" d="M1005.04,860.19c-29.28,7.07-61.91,38.85-71.85,67.14-.66,1.87,.94,6,3,3.36,10.54-13.48,18.34-27.89,31.12-39.8,11.74-10.93,25.61-18.75,38.5-28.13,.85-.62,.47-2.87-.78-2.57h0Z"/><path class="cls-2" d="M951.02,886.8c-.23,1.09-2.43,12.4-3.46,11.83,.47,.68,.94,1.35,1.41,2.03-.51,.72-1.02,1.44-1.52,2.16-.43-1.46-.86-2.92-1.29-4.38-1.93,4.53-3.92,9.05-4.89,13.9-.26,1.31,1.07,3.72,2.32,1.96,2.73-3.88,4.33-8.53,6.05-12.91,.48-1.21,.29-3.9-1.29-4.38-.17-.05-.34-.1-.51-.15-.48-.14-1.15-.09-1.51,.34-1.66,2.03-2.12,8.06,1.94,7.43,5.34-.83,5.23-13.76,5.28-17.36,.03-1.99-2.08-2.62-2.54-.46h0Z"/><path class="cls-2" d="M960.9,1097.89c-18.45,13.9-35.5,29.89-52.99,44.96-16.12,13.89-33.43,35.55-54.78,40.2-2.18,.47-2.3,5.24,.13,5.23,19.1-.09,33.48-20.17,46.67-31.71,20.84-18.23,42.71-35.77,62.37-55.27,1.09-1.08,.39-4.75-1.4-3.4h0Z"/><path class="cls-2" d="M1142.39,736.47c-15.02,20.46-33.99,34.51-59.3,39.1-22.06,4.01-44.68,.38-66.77,4.01-17.32,2.84-31.5,11.54-45.94,21.03-11.46,7.52-23.27,16.02-37.26,17.93-15.09,2.07-34.76-6.1-35.21-24.08-.04-1.49-1.79-2.17-2.01-.36-2.14,17.68,8.68,31.92,26.75,34.58,29.5,4.34,49.49-23.14,73.01-34.95,28.59-14.35,60.9-5.55,90.92-13.08,23.47-5.89,44.71-21.59,57.07-42.35,.54-.9-.29-3.14-1.26-1.82h0Z"/><path class="cls-2" d="M1227.62,924.51c13.2,35.23-11.13,67.94-41.94,83.05-27.84,13.65-59.77,16.44-90.03,21.02-21.32,3.23-54.36,1.83-68.61,21.16-12.2,16.55-9.21,39.44-4.64,58.11,.44,1.82,2.27,1.23,2.17-.5-1.2-19.9-4.21-45.84,16.29-57.5,13.24-7.53,33.93-7.18,48.75-9.43,28.43-4.3,57.95-7.27,85.06-17.42,38.35-14.36,75.67-57.21,54.32-99.77-.74-1.47-1.74,.24-1.36,1.27h0Z"/><path class="cls-2" d="M1058.63,1253.76c35.5,74.46,17.59,149.11-10.86,222.78-1.47,3.81,2.97,9.71,5.11,4.33,27.86-69.89,54.97-161.71,8.39-230.37-1.71-2.53-3.44,1.6-2.65,3.27h0Z"/><path class="cls-2" d="M1051.56,1480.17c1.06-35.71-6.71-74.33-14.85-108.93-7.92-33.66-19.84-67.05-40.4-95.16-4.05-5.53-7.63,4.24-5.01,8.06,20.48,29.93,32.98,62.91,40.97,98.17,7.33,32.33,8.11,66.57,16.96,98.41,.56,2.01,2.28,1.29,2.34-.54h0Z"/><path class="cls-2" d="M1074.66,1412.36c31.76-9.38,60.63-32.91,67.97-66.38,6.73-30.72-9.42-63.08-33.18-82.25-33.14-26.75-72.35-12.45-106.94,3.53-23.06,10.65-46.23,20.29-70.87,26.71-27.2,7.09-54.1,8.77-81.86,11.75-4.7,.51-4.48,10.36,.26,10.62,36.08,1.96,74.66-6.92,108.63-18.56,35.32-12.1,70.75-38.48,109.16-37.98,34.57,.45,66.81,33.98,68.78,68.26,2.23,38.78-32.38,63-63.29,77.76-2.52,1.2-1.9,7.49,1.35,6.54h0Z"/><path class="cls-2" d="M668.1,1412.38c39.05,3.94,51.41-43,83.93-54.95,19.07-7,39.87-6.44,58.55,1.3,13.66,5.66,27.5,14.39,42.75,14.46,14.28,.07,27.71-7.9,40.42-13.36,18.36-7.88,39-9.83,58.17-3.07,34.5,12.15,46.27,59.55,86.55,59.19,5.03-.05,4.8-11.43-.28-11.38-24.12,.24-37.5-19.12-52.1-35.32-11.39-12.64-23.88-21.89-40.71-25.66-13.73-3.08-28.78-3.2-42.29,.97-16.59,5.13-32.18,17.35-50.04,17.53-16.85,.17-32.32-11.39-47.77-16.64-14.69-4.99-31.4-5.06-46.37-1.2-38.56,9.96-50.37,60.52-90.93,63.87-1.91,.16-1.76,4.06,.1,4.25h0Z"/><path class="cls-2" d="M1152.6,1172.48c11.01-36.14,39.32-61.84,66.71-86.34,20.35-18.2,52.32-43.03,56.95-71.64,.51-3.13-1.86-9.82-5.89-6.56-6.08,4.91-8.98,11.89-13.51,18.21-6.18,8.63-13.39,16.48-20.88,23.99-12.68,12.72-26.35,24.4-39.2,36.94-23.45,22.89-43.57,50.11-47.1,83.63-.19,1.79,2.04,4.67,2.92,1.78h0Z"/><path class="cls-2" d="M1210.11,1083.39c11.02,49.16,16.31,97.79,20.56,147.92,.13,1.5,1.55,1.47,1.61-.04,1.83-49.6-6.29-101.41-19.23-149.2-.81-2.98-3.49-1.14-2.94,1.32h0Z"/><path class="cls-2" d="M1191.83,1103.25c3.59,35.63,8.64,71.06,11.51,106.78,2.87,35.66,2.31,71.75,5.79,107.29,.28,2.9,2.96,2.84,3.11-.08,1.87-36.49-2.47-74.29-5.58-110.64-2.96-34.61-6.03-69.75-12.29-103.93-.4-2.18-2.75-1.42-2.55,.59h0Z"/><path class="cls-2" d="M1170.76,1128.13c1.07,52.51,6.55,104.68,5.45,157.29-1.18,56.38-9.54,110.33-25.77,164.3-.81,2.7,2.22,7.13,3.69,3.12,18.36-50.14,24.58-104.84,26.18-157.93,1.67-55.43-.45-112.24-7.45-167.27-.24-1.86-2.13-1.12-2.1,.48h0Z"/><path class="cls-2" d="M1116.62,1241.97c38.08,23.59,64.09,73.38,48.57,117.8-14.92,42.73-57.94,71.37-100.23,81.31-2.52,.59-2.02,7.17,.77,6.83,47.33-5.7,96.1-47.31,106.79-94.22,10.08-44.24-15.1-95.26-54.81-116.08-1.87-.98-2.51,3.48-1.09,4.36h0Z"/><path class="cls-2" d="M1042.55,1443c-24.03-2.67-43.18-10.4-62.08-25.71-13.84-11.21-24.92-27.86-40.32-36.82-12.66-7.37-29.85-7.32-43.26-1.97-14.15,5.63-27.93,20.37-43.81,20.47-14.96,.09-28.88-13.8-41.95-19.57-12.98-5.72-29.82-6.32-42.63,.12-15.86,7.97-26.88,25.16-40.36,36.46-19.43,16.29-39.06,25.01-64.45,26.04-3.23,.13-2.87,6.66,.17,7.08,37.79,5.2,67.5-25.73,92.01-49.62,17.27-16.84,38.71-19.51,59.77-8.32,11.48,6.1,24.01,16.99,37.67,16.98,12.88-.02,24.94-9.91,35.7-15.81,20.18-11.07,42.24-11.19,59.61,5.58,24.86,24.01,55.27,58.35,94.06,50.22,2.21-.46,2.21-4.86-.12-5.12h0Z"/><path class="cls-2" d="M1119.67,1237.08c-39.37-21.92-86.35-13.09-124.75,6.37-20.99,10.64-40.83,23.74-63.42,30.9-26.43,8.38-54.43,8.95-81.89,9.42-3.02,.05-2.87,6.83,.16,6.81,23.59-.15,47.41-.75,70.51-5.99,21.89-4.96,41.13-15.16,60.62-25.93,44.14-24.38,89.33-35.72,138.07-17.1,2.18,.83,2.28-3.61,.7-4.48h0Z"/><path class="cls-2" d="M993.44,1609.01c-17.49-56.12-86.46-81.07-140.34-81.11-52.81-.03-124.67,24.44-140.55,80.91-.87,3.08,2.26,8.2,4.26,3.61,22.75-52.25,81.39-76.69,136.49-76.31,54.17,.38,115.38,22.79,136.7,76.11,1.56,3.9,4.24-.67,3.44-3.22h0Z"/><path class="cls-2" d="M970.81,1614.66c-48.35-85.8-185.5-80.3-235.99-.96-1.53,2.4,1.05,8.21,3.28,4.74,52.35-81.7,176.02-76.34,230.96-.96,1.47,2.01,2.49-1.52,1.75-2.82h0Z"/><path class="cls-2" d="M937.67,1617.27c-18.84-26.7-53.58-33.96-84.56-34-29.21-.03-68.57,6.26-84.44,34.12-.74,1.31,.16,6.06,2.16,4.01,22.12-22.61,48.01-30.72,79.54-31.25,30.68-.52,64.95,5.46,84.92,30.96,2.02,2.58,3.65-2.04,2.39-3.83h0Z"/><path class="cls-2" d="M1180.89,758.66c-4.56,9.66-10.08,18.53-17.89,25.91-6.65,6.28-14.36,11.16-21.22,17.14-1.26,1.09-.88,5.4,1.38,4.55,18.31-6.87,32.25-28.96,39.38-46.2,.5-1.22-.84-3.07-1.64-1.39h0Z"/><path class="cls-2" d="M1158.23,761.25c-9.04,20.05-23.13,33.79-39.79,47.48-.94,.78-.52,4.17,1.02,3.36,19.02-10.01,32.69-29.98,40.31-49.53,.45-1.15-.82-2.92-1.55-1.31h0Z"/><path class="cls-2" d="M1137.3,765.54c-13.04,23.78-31.07,39.77-51.49,56.92-1.06,.89-.54,4.77,1.16,3.8,22.35-12.8,39.75-36.45,51.67-58.79,.53-1-.53-3.4-1.34-1.93h0Z"/><path class="cls-2" d="M1113,776.41c-6.47,11.1-13.68,21.75-22.12,31.46-7.85,9.03-17.19,16.22-25.47,24.74-.72,.74-.52,4.02,.96,3.16,20.67-12,37.52-36.08,48.39-56.82,.67-1.28-.63-4.48-1.76-2.54h0Z"/><path class="cls-2" d="M1056.53,809.28c-12.28,3.81-20.56,13.24-28.9,22.59-9.85,11.04-17.5,19.19-32.08,23.45-1.82,.53-1.28,4.39,.52,4.59,12.23,1.38,21.99-8.91,29.08-17.53,9.57-11.63,17.09-25,31.87-30.7,.97-.37,.68-2.77-.5-2.4h0Z"/><path class="cls-2" d="M1074.3,808.71c-15.29,9.79-32.75,24.1-41.4,40.36-.57,1.07,.15,5.15,1.82,3.38,6.61-7.03,11.95-15.26,18.37-22.48,6.53-7.34,14.14-13.24,21.79-19.33,.57-.46,.21-2.44-.58-1.93h0Z"/><path class="cls-2" d="M960.2,828.18c-8.33,10.96-23.83,17.27-37.11,11.51-13.08-5.69-17.06-15.89-22.21-28.04-.88-2.07-2.93-1.21-3.22,.72-2.09,14.18,9.38,29.09,22.82,32.93,15.86,4.53,31.63-2.52,40.64-15.8,.44-.66-.21-2.26-.92-1.33h0Z"/><path class="cls-2" d="M959.65,842.58c-11.05,5.98-22.48,11.2-35.44,9-13.54-2.3-19.31-12.09-23.15-24.18-.77-2.43-2.91-.96-3.32,.74-2.92,12.16,7,23.09,17.68,27.35,15.78,6.3,32.44-.76,44.82-10.93,.56-.46,.3-2.46-.6-1.98h0Z"/><path class="cls-2" d="M957.2,854.56c-9.97,2.65-19.53,7.89-30.17,7.48-12.03-.46-23.02-8.29-25.94-20.17-.93-3.81-4.14-2.25-4.3,1-1.63,33.68,43.37,25.13,60.88,14,.79-.5,.73-2.62-.47-2.3h0Z"/><path class="cls-2" d="M983.72,839.82c-14.95,19.84-60.52,52.21-79.1,17.12-2.15-4.05-5.97-1.41-5.67,2.5,1.32,17.18,19.17,22.86,34.41,20.29,21.84-3.7,39.64-20.47,51.7-37.98,.66-.95-.31-3.29-1.33-1.93h0Z"/><path class="cls-2" d="M1108.97,1090.03c17.8,23.37,30.39,46.24,35.34,75.64,2.44,14.52,3.03,29.18,1.06,43.8-1.75,12.98-6.79,24.64-9.69,37.23-.54,2.33,1.9,6.48,4.06,3.43,15.59-22.09,15.12-58.92,10.52-84.37-5.13-28.37-19.16-58.79-39.54-79.41-1.69-1.71-2.66,2.49-1.75,3.68h0Z"/><path class="cls-2" d="M1109.51,1084.64c-4.49,19.08-7.59,36.64-18.23,53.62-7.84,12.5-18.02,23.3-28.17,33.91-16.3,17.03-35.87,35.43-42.2,58.92-.82,3.04,2.56,11.94,5.57,6.23,15.15-28.61,36.99-48.56,57.01-73.46,17.16-21.33,30.5-51.01,27.57-78.94-.12-1.16-1.23-1.65-1.55-.28h0Z"/><path class="cls-2" d="M1118.4,1136.84c14.61,32.63,13.26,67.38-7.3,97.25-1.33,1.93,.77,6.64,2.67,3.86,20.71-30.17,24.37-70.69,6.18-103.04-.87-1.54-2,.93-1.55,1.92h0Z"/><path class="cls-2" d="M1118.07,1136.09c2.05,16.63-9.19,31.52-20.19,42.34-6.1,6-12.61,11.56-18.38,17.9-8.04,8.83-13.49,18.11-16.19,29.74-.88,3.81,3.71,6.5,4.63,1.82,7.28-37.15,58.85-50.4,52.62-92.91-.38-2.63-2.74-.93-2.49,1.12h0Z"/><path class="cls-2" d="M1215.79,946.81c14.13-26.12,19.86-56.43,17.3-85.94-1.34-15.43-5.51-30-9.91-44.79-6.9-23.17-10.03-43.26-3.33-67.06,.54-1.93-1.23-7.12-3.41-3.81-15.04,22.92-4.53,53.16,3.04,76.83,13.5,42.25,11.99,81.95-5.43,122.83-.46,1.07,.84,3.59,1.73,1.94h0Z"/><path class="cls-2" d="M1090.48,1036.68c13.42,53.23-18.14,97.62-56.14,131.42-27.04,24.05-53.09,47.46-54.75,86.41-.1,2.38,2.79,4.45,3.8,1.46,3.76-11.12,4.86-22.92,9.36-33.86,5.99-14.58,16.24-25.58,27.88-35.87,16.29-14.4,32.85-28.27,46.51-45.32,23.66-29.54,38.37-68.67,25.99-106.06-.84-2.54-3.13-.02-2.67,1.81h0Z"/><path class="cls-2" d="M934.98,1549.49c25.01-34.61,50.59-74.28,64-115.11,.71-2.17-1.88-7.88-3.73-4.17-9.78,19.62-18,39.91-28.33,59.3-10.35,19.43-22.76,37.6-34.62,56.11-1.23,1.92,.67,6.64,2.68,3.87h0Z"/><path class="cls-2" d="M943.15,1480.85c12.08-16.23,28.96-39.78,28.83-60.91-.01-1.95-2.03-4.5-3.62-2.16-5.37,7.85-6.74,18.74-10.2,27.61-4.51,11.57-9.99,22.77-16.45,33.39-.62,1.03,.33,3.58,1.44,2.08h0Z"/><path class="cls-2" d="M931.21,1453.25c10.98-13.03,26.39-35.04,23.39-53.12-.29-1.76-2.37-3.39-3.59-1.34-4.23,7.1-4.23,16.47-6.88,24.25-3.29,9.66-8.5,19.08-14.44,27.38-.72,1,.33,4.24,1.52,2.83h0Z"/><path class="cls-2" d="M996.61,1492.23c5.64-15.24,12.07-30,18.29-45,1.59-3.85-3.36-9.45-4.99-4.22-4.98,15.95-9.63,31.85-15.2,47.62-.5,1.41,1.14,3.62,1.9,1.6h0Z"/><path class="cls-2" d="M1018.26,1488.39c3.93-6.83,7.57-13.06,12.65-19.08,4.3-5.12,7.62-11.28,10.38-17.33,1.59-3.48-2.93-11.28-5.47-6.12-1.02,2.06-1.91,3.08-2.23,5.44-.16,1.19,.27,4.5,2.24,4.22,2.03-.28,2.69-.23,4.29-1.65-1.43-2.67-2.87-5.34-4.3-8.01-3.61,6.2-6.96,12.75-9.53,19.44-2.79,7.28-6.7,13.88-9.96,20.94-.55,1.2,.9,3.97,1.94,2.16h0Z"/><path class="cls-2" d="M855.76,795.57c-.07-33.54,5.54-67.84,3.47-101.27-.29-4.71-5.52-6.96-6.42-1.16-5.19,33.31-.45,68.95,.81,102.48,.07,2.01,2.15,1.96,2.14-.05h0Z"/><path class="cls-2" d="M510.92,1266.28c-.91,24.55-.35,49.18,.83,73.71,.78,16.24-.15,36.42,9.05,50.51,1.61,2.47,3.41-1.14,2.98-2.77-10.18-39.07-9.33-81.31-11.18-121.49-.07-1.58-1.62-1.52-1.68,.04h0Z"/><path class="cls-2" d="M490.11,1171.99c-8.2,35.39-12.58,74.44-5.62,110.38,.39,2.02,2.17,1.14,2.24-.52,1.46-36.64,.67-72.72,4.91-109.27,.15-1.25-1.17-2.16-1.53-.6h0Z"/><path class="cls-2" d="M1194.33,1266.28c-1.85,40.02-.97,81.92-11.05,120.87-.42,1.64,1.05,6.18,2.95,3.29,9.34-14.19,8.14-34.16,8.95-50.57,1.21-24.5,1.74-49.11,.83-73.63-.06-1.59-1.61-1.51-1.68,.04h0Z"/><path class="cls-2" d="M1215.29,1172.62c4.28,36.59,3.43,72.6,4.89,109.28,.07,1.71,1.88,2.39,2.26,.41,7-35.92,2.53-74.98-5.65-110.37-.37-1.59-1.64-.54-1.5,.67h0Z"/><path class="cls-2" d="M476.17,1097.06c-.05-.58-.1-1.16-.14-1.74-.06-.7-.91-1.1-.99-.18-.05,.56-.09,1.12-.14,1.69-.1,1.31,1.39,1.62,1.27,.23h0Z"/><path class="cls-2" d="M477.43,1082.75c-7.16,20.61-13.84,45.41-10.84,67.35,.34,2.49,2.85,2.13,3.27-.08,4.2-21.97,4.27-44.24,9.22-66.26,.25-1.1-1.12-2.56-1.66-1.01h0Z"/><path class="cls-2" d="M792.59,1409.9c12.57,21.27,31.83,40.03,57.34,42.61,28.65,2.9,43.64-22.17,58.53-42.47,.55-.76-.27-3.16-1.14-2.11-13.84,16.71-31.85,32.21-54.81,31.44-22.78-.76-45.72-13.44-58.63-31.55-1.05-1.47-1.86,1.1-1.29,2.07h0Z"/><path class="cls-2" d="M761.6,1041.34c-.61,13.59,3.57,28.17,9.75,40.21,5.21,10.16,14.69,24.91,25.92,28.92,4.02,1.44,4.68-6.06,2.88-8.13-7.57-8.71-16.95-14.47-23.61-24.4-7.76-11.59-10.78-23.48-12.88-37.08-.29-1.89-1.99-1.02-2.06,.48h0Z"/><path class="cls-2" d="M744.64,1056.6c-1.34,15.41,1.02,43.15,16.68,51.53,2.04,1.09,2.36-3.02,1.92-4.05-3.04-7.1-8.25-12.99-11.38-20.19-3.77-8.67-5.47-17.49-5.25-26.93,.03-1.49-1.82-2.11-1.98-.36h0Z"/><path class="cls-2" d="M754.59,1047.73c-3.47,13.43-1.82,29.2,4.38,41.62,5.78,11.57,19.59,26.79,33.82,25.34,3.84-.39,4.1-7.42,1.42-9.33-8.97-6.36-18.55-9.83-25.96-18.48-9.65-11.26-13.88-23.07-11.64-37.92,.2-1.29-1.52-3.2-2.02-1.23h0Z"/><path class="cls-2" d="M752.59,1150.08c16.96,16.04,33.67,33.16,52.14,47.47,1.45,1.12,1.82-1.95,1-2.8-16.17-16.75-34.74-31.56-52.4-46.71-.97-.83-1.4,1.4-.73,2.04h0Z"/><path class="cls-2" d="M555.32,934.47c29.57,27.6,72.7,43.31,112.37,30.54,1.24-.4,1.01-3.36-.38-3.36-40.33-.17-77.48-6.13-111.03-29.88-1.43-1.01-1.84,1.89-.96,2.71h0Z"/><path class="cls-2" d="M939,1040.91c-2.04,13.08-4.71,24.26-11.99,35.57-6.72,10.42-16.25,16.17-24.03,25.2-1.9,2.21-2.02,10.41,2.66,8.75,11.51-4.09,21.4-19.81,26.47-30.3,5.67-11.74,9.55-25.74,8.96-38.84-.07-1.54-1.79-2.24-2.08-.37h0Z"/><path class="cls-2" d="M956.06,1057.01c.22,9.47-1.5,18.32-5.34,26.98-3.17,7.16-8.35,13.06-11.36,20.16-.48,1.14,.14,4.99,2.12,3.95,7.33-3.85,11.58-14.48,13.91-22.07,2.9-9.42,3.52-19.31,2.67-29.08-.16-1.84-2.04-1.85-2,.05h0Z"/><path class="cls-2" d="M946.08,1049.01c2.3,15.16-2.38,27.47-12.53,38.76-7.3,8.13-16.71,11.52-25.3,17.68-2.82,2.02-1.79,8.88,1.88,9.24,14.4,1.44,28.21-14.1,33.9-25.87,5.86-12.12,7.49-27.69,4.13-40.74-.56-2.16-2.34-.79-2.08,.93h0Z"/><path class="cls-2" d="M949.31,1148.06c-17.67,15.13-36.28,29.94-52.42,46.72-.85,.88-.31,3.86,1.13,2.75,18.47-14.28,35.17-31.42,52.12-47.46,.68-.64,.15-2.84-.83-2.01h0Z"/><path class="cls-2" d="M1146.32,931.79c-33.52,23.68-70.76,29.68-111.05,29.85-1.43,0-1.42,2.99-.22,3.38,39.69,12.74,82.81-2.92,112.36-30.58,.89-.83,.33-3.66-1.1-2.65h0Z"/><path class="cls-2" d="M752.68,894.81c3.01,4.96,7.2,8.76,9.72,14.1,2.35,4.97,5.86-.82,4.56-4.26-1.66-4.4-3.31-8.79-4.97-13.19-1.2,1.93-2.4,3.86-3.6,5.79,1.8,1.58,2.79,3.05,2.88,5.52,.11,2.98,3.93,6.35,5.19,1.99,.85-2.92,1.7-5.84,2.55-8.76-1.7-.3-3.41-.59-5.11-.89,1.19,8.34,1.75,17.11,3.8,25.28,1.1,4.35,5.36,2.93,5.17-1.2-.39-8.81-2.37-17.75-3.65-26.46-.43-2.93-4.13-4.32-5.11-.89-.84,2.93-1.68,5.87-2.51,8.8,1.73,.67,3.46,1.33,5.19,1.99-.22-5.05-1.96-9.3-5.82-12.64-3.27-2.83-4.33,3.87-3.6,5.79,1.67,4.38,3.35,8.75,5.02,13.13,1.52-1.42,3.04-2.84,4.56-4.26-2.53-5.29-6.57-12.73-12.7-14.3-2.39-.61-2.36,3.17-1.58,4.46h0Z"/><path class="cls-2" d="M940.43,893.41c-2.59,7.48-4.34,15.08-6.19,22.78,1.68,.3,3.35,.61,5.03,.91-.36-3.83,.47-7.32,2.65-10.52,1.86-2.73,5.63-6.65,9.25-6.51-.55-2.72-1.11-5.44-1.66-8.17-5.83,5.8-11.09,13.01-12.73,21.19-.29,1.43,1.25,5.63,3.16,3.52,4.76-5.25,8.06-11.74,12.67-17.18,2.08-2.45,1.16-10.44-3.1-7.53-2.39,1.63-5.06,2.42-7.29,4.4-1.87,1.66-3.5,3.67-4.76,5.82-2.67,4.58-3.84,9.84-3.29,15.11,.39,3.74,4,5.37,5.03,.91,1.74-7.58,3.47-15.03,4.51-22.73,.28-2.08-2.19-5.17-3.29-2h0Z"/><path class="cls-2" d="M802.45,878.25c2.63-2.71,6.02-5.6,5.88-9.68-.03-.81-.39-2.31-1.36-2.57-2.03-.53-2.93,.95-4,2.43-1.15,1.6-2.1,3.33-3.07,5.04-.69,1.2-.74,2.83-.06,4.04,.52,.92,1.69,1.69,2.62,.73h0Z"/><path class="cls-2" d="M903.55,860.39c-4.74,2.27-4.6,9.98-1.48,13.55,1.42,1.62,3.33,1.25,4.03-.89,.93-2.87,.23-6.96-2.98-8.12-3.42-1.25-5.23,2.69-5.13,5.46,.09,2.34,2.2,7.15,5.19,4.9,1.4-1.05,1.65-3.18,1.06-4.74-.2-.53-.6-1.14-.88-1.47-.22-.33-.49-.6-.82-.81,.48,1.27,.65,1.53,.52,.78,.02,.7,.03,1.4,.05,2.11-.16,2.46-1.79,1.42-1.75-.32,.1-.67,.2-1.33,.3-1.99-.04,.12-.08,.25-.12,.37,1.34-.3,2.69-.6,4.03-.9-.98-1.09-.94-1.52-.04-3.04,.75-1.26,.51-6.07-2-4.87h0Z"/><path class="cls-2" d="M638.66,1311.93c2.23-9.22,4.53-18.14,8.48-26.79,3.9-8.51,9.81-15.53,15.07-23.2,1.84-2.69-.76-9.23-3.78-5.46-11.7,14.62-19.64,36.03-22.28,54.47-.3,2.07,1.9,3.51,2.51,.98h0Z"/><path class="cls-2" d="M638.43,1337.55c.7-16.19,9.15-17.17,18.49-25.7,2.86-2.61,5.14-4.74,5.66-8.82,.54-4.2-.59-10.99-.34-15.01,.63-10.4,3.9-13.99,13.14-18.4,4.21-2.01,8.84-3.08,13.14-4.9,1.02-.43,.96-3.1-.34-3.01-15.67,1.07-28.98,11.58-30.43,27.5-.75,8.18,1.48,16.32-4.59,22.82-2.58,2.76-6.43,4.15-9.02,7.07-4.72,5.32-6.31,11.57-6.45,18.47-.01,.72,.73,.68,.76-.02h0Z"/><path class="cls-2" d="M685.41,1282.89c7.36,12.49-4.66,23.29-6.38,34.54-.87,5.7,.51,10.92,.63,16.59,.24,11.44-3.46,20.74-9.4,30.28-.41,.65,.18,2.89,1.03,1.91,10.78-12.58,10.44-24.88,10.14-40.57-.29-15.06,13.56-29.57,4.64-43.82-.48-.76-.96,.55-.66,1.06h0Z"/><path class="cls-2" d="M649.88,1334.35c.94,18.15-16.71,25.42-19.05,42.63-1.52,11.16-1.96,22.3,2.56,32.8,.63,1.47,1.93,.03,1.61-1.09-2.52-8.74-2.88-17.15-2.21-26.18,.83-11.14,6.37-18.01,12.32-27.23,4.46-6.91,6.32-12.7,5.66-20.96-.07-.82-.93-.82-.89,.02h0Z"/><path class="cls-2" d="M636.44,1365.35c-.26,7.53,2.66,14.12,8.36,19.13,6.55,5.77,12.46,7.45,14.74,17.23,1.74,7.45-.31,14.82-1.16,22.25-.13,1.16,1.16,2.87,1.83,1.11,3.29-8.6,4.77-19.34,1.65-28.21-1.34-3.79-3.27-6.58-6.44-9.03-2.59-2.01-5.82-2.98-8.48-4.89-6.3-4.53-8.72-10.33-9.57-17.8-.09-.84-.9-.46-.92,.22h0Z"/><path class="cls-2" d="M996.57,1274.8c1.07,6.96,5.58,11.44,11.42,15.04,8.7,5.37,26.62,9.85,24.76,23.37-.07,.56,.52,.96,.68,.27,5.33-22.69-29.33-23.07-34.93-39.99-.64-1.93-2.12,.08-1.93,1.31h0Z"/><path class="cls-2" d="M1051.2,1351.25c-2.23-14.09-1.7-24.81,3.55-37.97,1.81-4.54,2.67-5.55,2.54-11.2-.32-14.16-5.23-30.86-9.13-44.42-.57-1.98-2.07-.7-1.9,.85,1.1,9.57,3.19,18.97,5,28.43,2.28,11.94,.47,20.99-2.29,32.39-2.58,10.67-.82,21.76,1.2,32.36,.21,1.07,1.16,.39,1.03-.46h0Z"/><path class="cls-2" d="M1067.27,1368.61c-2.82-11.35,3.85-22.08,2.83-33.47-.17-1.89-1.7-3.55-1.95-5.34-3.08-21.61,.47-26.9,10.16-42.81,.44-.72-.22-3.21-1.13-2.11-8.25,9.83-16.35,23.02-14.51,36.46,1.47,10.74,5.65,19.06,4.25,30.59-.79,6.47-2.2,10.64-.47,17.05,.22,.84,1.01,.33,.83-.37h0Z"/><path class="cls-2" d="M1036.4,1374.45c1.23,5.97,3.76,10.82,9,14.3,1.44,.96,5.51,1.72,6.45,2.85,2.25,2.72-.24,6.46-.31,9.74-.09,4.33,1.12,8.15,4.51,10.99,1.91,1.61,3.73,2.06,5.21,4.06,3.3,4.47,3.13,13.83,4.72,19.2,.48,1.64,2.14,1.2,2.03-.47-.55-7.71-2.09-15.26-3.57-22.84-.19-.94-.86-1.86-1.9-1.56-7.8-6.05-10.04-12.46-6.71-19.23,.23-.65,.07-1.72-.75-1.84-8.91-1.29-15.1-6.35-17.75-15.61-.27-.94-1.09-.36-.93,.42h0Z"/><path class="cls-2" d="M804.11,1168.16c-7.13,21.92,4.62,50.35,25.17,60.59,.94,.46,1.03-1.57,.5-2.01-18.75-15.57-26.81-33.85-25.02-58.19,.03-.39-.44-1.05-.65-.4h0Z"/><path class="cls-2" d="M810.89,1177.16c.98,19.12,4.47,49.27,29.03,51.37,1.06,.09,.96-2.13,.16-2.45-21.13-8.28-25.7-28.69-28.3-49.13-.1-.77-.92-.48-.88,.2h0Z"/><path class="cls-2" d="M821.35,1184.42c1.34,13.79,8.25,58.07,31.11,52.26,.95-.24,.83-2.45-.07-2.69-21.78-5.89-26.08-30.29-29.99-49.81-.18-.89-1.13-.59-1.05,.24h0Z"/><path class="cls-2" d="M832.19,1192.97c1.01,15.71,8.16,34.07,22.92,41.75,1.3,.68,1.26-2.1,.67-2.69-11.4-11.33-20.56-22.43-22.38-39.1-.12-1.1-1.29-1.13-1.22,.03h0Z"/><path class="cls-2" d="M899.04,1168.43c1.79,24.27-6.41,42.79-25.06,58.33-.55,.46-.33,2.44,.6,1.98,20.63-10.24,32.17-38.66,25.11-60.59-.17-.53-.68-.11-.65,.29h0Z"/><path class="cls-2" d="M892.04,1176.98c-2.62,20.49-7.21,40.81-28.35,49.12-.83,.33-.76,2.52,.28,2.44,24.58-2.09,27.99-32.33,28.97-51.39,.04-.68-.79-.94-.89-.16h0Z"/><path class="cls-2" d="M881.41,1184.2c-3.93,19.57-8.21,43.87-30.05,49.8-.93,.25-.84,2.46,.07,2.69,22.78,5.77,29.7-38.27,31.03-52.08,.08-.85-.83-1.49-1.04-.41h0Z"/><path class="cls-2" d="M870.43,1192.72c-1.84,16.73-11.03,27.92-22.46,39.34-.63,.62-.48,3.31,.81,2.65,14.67-7.58,21.83-25.95,22.84-41.52,.06-.94-1.05-1.71-1.18-.46h0Z"/><path class="cls-2" d="M916.88,957.49c-3.22-11.97-7.21-23.61-5.87-36.25,1.55-14.61,11.53-31.08,28.72-27.83,1.43,.27,1.5-2.29,.44-2.81-13.7-6.66-25.6,5.73-29.98,17.96-5.82,16.29-.63,34.26,5.75,49.57,.36,.87,1.11,0,.94-.64h0Z"/><path class="cls-2" d="M922.81,949.98c-4.21-11.28-5.46-22.78-1.45-34.31,3.51-10.09,10.78-20.45,22.83-17.58,1.5,.36,1.58-2.25,.74-2.95-9.94-8.33-20.81,4.79-24.53,13.52-5.68,13.34-5.07,29.21,1.61,42.07,.45,.85,1.02-.14,.8-.75h0Z"/><path class="cls-2" d="M787.77,958.11c6.39-15.28,11.58-33.35,5.67-49.62-4.44-12.21-16.31-24.55-29.98-17.87-.89,.43-.9,3.07,.32,2.84,14.19-2.67,24.23,8.22,27.71,21.04,4,14.75-.85,28.68-4.64,42.83-.18,.66,.5,1.78,.92,.78h0Z"/><path class="cls-2" d="M781.62,950.85c6.45-12.39,7.34-27.66,2.26-40.72-3.52-9.03-14.71-23.82-25.19-14.97-.89,.75-.57,3.25,.88,2.91,13.07-3.1,20.72,9.4,23.61,20.29,2.87,10.82,1.55,21.22-2.32,31.63-.17,.46,.37,1.59,.76,.85h0Z"/><path class="cls-2" d="M820.18,838.4c-4.03,16.12-9.83,44.76,8.68,54.97,.95,.53,1.07-1.54,.71-2-13.05-16.72-12.17-32.39-8.35-52.56,.16-.87-.79-1.45-1.04-.41h0Z"/><path class="cls-2" d="M829.5,835.52c-2.34,10.11-9.93,58.63,12.04,55.36,1.21-.18,1.42-2.78,.2-3.08-18.71-4.71-13.89-37.9-11.16-51.85,.17-.89-.82-1.5-1.07-.42h0Z"/><path class="cls-2" d="M840.85,823.01c-5.27,20.36-11.45,48.76,2.4,67.15,1.11,1.47,1.9-.95,1.54-1.9-8.61-22.36-6.77-41.6-3.06-64.72,.09-.56-.66-1.38-.88-.53h0Z"/><path class="cls-2" d="M885.1,838.83c3.85,20.27,4.69,35.69-8.4,52.56-.39,.5-.13,2.48,.81,1.97,18.51-10.12,12.64-38.89,8.61-54.99-.26-1.05-1.18-.39-1.02,.46h0Z"/><path class="cls-2" d="M875.74,835.96c2.75,14.03,7.58,47.09-11.25,51.83-1.25,.32-.81,2.9,.35,3.07,21.92,3.23,14.26-45.38,11.95-55.38-.25-1.09-1.22-.41-1.05,.47h0Z"/><path class="cls-2" d="M864.59,823.57c3.74,23.22,5.44,42.37-3.11,64.74-.39,1.01,.54,3.26,1.63,1.82,13.8-18.21,7.6-46.77,2.38-66.96-.24-.94-1.02-.34-.9,.4h0Z"/><path class="cls-2" d="M836.39,764.27c-.98,15.59,.77,30.95,6.3,45.63,4.41,11.72,6.1,22.54,7.96,34.77,.76,5.03,1.61,6.99,4.1,11.37,.89,1.56,1.77-.98,1.48-1.83-4.33-12.99-2.24-25.78-7.57-38.53-7.09-17-11.69-32.69-11.38-51.42,.01-.86-.85-.8-.9,.02h0Z"/><path class="cls-2" d="M870.85,765.76c.1,32.01-24.32,62.5-15.41,94.69,.47,1.71,2.28,1.24,2.11-.49-3.26-32.86,16.02-61.61,14.29-94.22-.05-.92-.99-.9-.99,.02h0Z"/><path class="cls-2" d="M1087.48,854.2c-59.04,6.26-141.66,40.26-151.17,107.86-.48,3.43,3.22,8.09,5.24,3.19,12.71-30.77,27.73-55.73,56.08-74.73,27.45-18.41,58.49-26.01,90.15-33.59,1.01-.24,.81-2.84-.31-2.72h0Z"/><path class="cls-2" d="M1138.09,857.11c20.14,10.21,53.4,12.37,71.45-3.6,1.63-1.44,1.16-7.2-1.83-6.03-11.62,4.55-20.76,11.37-33.78,12.38-12.12,.94-24.07-1.36-35.4-5.61-1.37-.51-1.49,2.32-.44,2.85h0Z"/><path class="cls-2" d="M620.44,856.93c31.46,7.37,62.59,14.54,89.88,32.89,26.11,17.55,39.97,40.21,52.18,68.29,2.14,4.94,5.55-.16,5.08-3.44-9.27-64.39-91.55-95.08-146.96-100.48-1.12-.11-1.17,2.5-.18,2.73h0Z"/><path class="cls-2" d="M569.57,854.27c-11.35,4.25-23.31,6.58-35.44,5.59-13.15-1.07-22.06-7.78-33.82-12.41-3.07-1.21-3.07,4.76-1.53,6.11,18.03,15.87,51.32,13.72,71.38,3.53,1.06-.54,.79-3.34-.58-2.82h0Z"/><path class="cls-2" d="M1034.95,1102.34c.66-10.42,.04-20.78,2.87-30.95,2.96-10.64,8.76-17.6,15.85-25.77,1.33-1.53,1.39-7.84-1.94-6.38-21.72,9.55-21.49,44.15-19.27,63.68,.26,2.31,2.37,1.19,2.48-.57h0Z"/><path class="cls-2" d="M1046.46,1097.87c1.33-11.77,2.89-22.91,7.5-33.95,4.41-10.58,11.55-16.16,18.56-24.56,1.12-1.34,1.78-6.89-1.32-6.47-10.12,1.41-17.06,12.82-20.87,21.43-5.86,13.22-5.78,28.87-6.2,43.12-.05,1.76,2.1,2.48,2.33,.42h0Z"/><path class="cls-2" d="M1059.35,1090.9c2.16-12.12,3.33-22.77,9.46-33.81,4.62-8.32,11-14.11,18.09-20.29,1.53-1.33,1.59-7.04-1.36-6.67-25.75,3.24-28.41,40.68-28.59,60.34-.02,1.84,2.03,2.52,2.4,.44h0Z"/><path class="cls-2" d="M1074.83,1077.38c-1.03-8.82,1.74-17.79,6.94-24.89,4.04-5.52,10.28-8.8,14.01-14.32,1.03-1.53,.67-5.01-1.56-5.22-8.3-.79-15.72,11.09-18.59,17.7-3.9,8.99-4.57,18.04-2.74,27.6,.39,2.07,2.12,.7,1.94-.87h0Z"/><path class="cls-2" d="M673.52,1102.85c2.25-19.55,2.25-54.02-19.46-63.65-2.87-1.27-3.35,4.5-2.1,5.93,6.4,7.31,12.22,13.72,15.38,23.12,3.75,11.13,2.95,22.63,3.67,34.14,.11,1.81,2.24,2.75,2.5,.45h0Z"/><path class="cls-2" d="M661.84,1097.39c-.42-14.24-.42-29.97-6.33-43.2-3.87-8.68-10.83-19.86-20.92-21.3-2.56-.36-2.53,4.74-1.47,5.99,6.32,7.47,13.41,12.75,17.66,21.98,5.45,11.83,7.25,23.76,8.7,36.58,.24,2.14,2.43,2.21,2.36-.06h0Z"/><path class="cls-2" d="M649.02,1090.41c-.18-19.86-3-56.98-28.77-60.28-3.03-.39-2.45,5.5-1.03,6.73,7.48,6.46,13.88,12.45,18.6,21.29,5.71,10.7,6.76,21.12,8.83,32.81,.37,2.1,2.39,1.26,2.37-.55h0Z"/><path class="cls-2" d="M633.1,1078.21c1.83-9.57,1.12-18.7-2.86-27.66-2.92-6.56-10.38-18.4-18.65-17.59-2.29,.22-2.29,3.84-1.3,5.29,3.8,5.52,10.02,8.76,14.05,14.34,5.16,7.16,7.8,16.02,6.77,24.85-.19,1.62,1.59,2.82,1.99,.78h0Z"/><path class="cls-2" d="M1184.59,1146.42c.71-9.26,1.53-19.88,.04-29.06-.34-2.12-2.53-1.93-2.86,.07-1.47,8.98-.66,19.45,.03,28.49,.15,1.98,2.59,3.09,2.79,.5h0Z"/><path class="cls-2" d="M1208.49,1123.26c-.73-10.19-.68-21.73-4.04-31.45-1.2-3.49-4.05-.54-4.09,1.81-.16,10.02,3.23,20.58,5.58,30.23,.52,2.13,2.7,1.45,2.55-.59h0Z"/><path class="cls-2" d="M902.84,1029.64c2.19,12.3,3.49,24.45,1.33,36.88-1.89,10.88-7.38,20.23-10.48,30.65-.67,2.26,1.09,7.44,3.7,4.14,14.26-18.11,13.39-51.7,6.9-72.65-.44-1.43-1.61,.04-1.45,.98h0Z"/><path class="cls-2" d="M798.41,1028.27c-6.67,23.43-4.01,48.33,8.91,69.13,2.98,4.8,5.78-3.45,4.09-6.57-10.53-19.43-14.77-39.56-11.24-61.48,.18-1.13-1.28-2.77-1.76-1.07h0Z"/><path class="cls-2" d="M807.2,979.67c7.7-18.99,13.24-41.44,15.25-61.77,1.45-14.66,2.92-34.79-12.35-42.28-2.14-1.05-4.57,.08-6.21,1.4-4.45,3.56-5.49,6.28-6.38,11.79-.51,3.18,.66,9.59,5.06,9.53,9.48-.12,8.07,26.45,8.43,33.19,.87,16.02-3.1,30.84-6.93,46.23-.52,2.11,1.98,4.72,3.12,1.9h0Z"/><path class="cls-2" d="M621.94,994.24s113.88-3.49,116.21,0c2.32,3.49,2.32,24.4,2.32,24.4l-6.97,31.38s6.97-27.89-24.4-38.35c-31.38-10.46-59.27-6.98-87.16-17.43Z"/><path class="cls-2" d="M591.88,1185.71c-1.74,12.95-2.17,39.26,10.24,47.67,2.42,1.64,3.61-2.08,3.19-3.93-1.48-6.45-5.25-12.09-7.73-18.24-3.35-8.32-4.36-16.28-4.11-25.22,.03-1.21-1.4-1.68-1.59-.29h0Z"/><path class="cls-2" d="M603.54,1192.09c-3.01,7.38-5.04,15.6-4.23,23.6,.59,5.82,2.55,15.7,8.61,18.15,2.43,.99,2.96-2.94,2.73-4.39-.83-5.29-3.98-9.93-5.38-15.15-1.88-7.01-2.08-13.5,.38-20.43,.56-1.57-1.2-4.03-2.11-1.79h0Z"/><path class="cls-2" d="M613.31,1201.22c-3.45,5.27-5.01,10.47-4.7,16.84,.21,4.41,1.52,12.99,6.86,13.71,1.34,.18,1.97-2.12,1.88-3.02-.39-3.89-2.57-6.81-3.75-10.48-1.64-5.1-1.17-10.76,.99-15.63,.35-.78-.51-2.58-1.27-1.42h0Z"/><path class="cls-2" d="M622.78,1210.33c-3.3,2.77-4.11,6.01-4.53,10.15-.21,2.05-.63,4.23-.28,6.29,.32,1.88,1.71,5,4.09,4.54,1.28-.25,2-1.38,2.16-2.63,.38-2.99-.41-6.17-3.14-7.73,.52,.58,1.04,1.16,1.56,1.74-.83-1.54-1.2-2.42-.81-4.19,.41-1.86,1.34-3.87,2.42-5.42,.66-.94-.02-3.96-1.48-2.75h0Z"/><path class="cls-2" d="M479.05,913.8c-21.4,38.1-12.91,73.71,21.38,99.57,17.55,13.23,37.83,22.51,58.75,29,19.08,5.92,42.77,13.65,61.44,3.13,2.83-1.59,2.97-8.6-1-8.8-17.4-.9-33.06-.57-50.25-5.26-15.35-4.19-30.46-9.65-44.56-17.08-14.51-7.65-30.22-17.77-40.44-30.93-15.97-20.54-7.87-44.52-2.38-67.16,.38-1.57-1.59-4.87-2.93-2.47h0Z"/><path class="cls-2" d="M1084.03,994.24s-113.88-3.49-116.2,0c-2.33,3.49-2.33,24.4-2.33,24.4l6.97,31.38s-6.97-27.89,24.4-38.35c31.38-10.46,59.26-6.98,87.15-17.43Z"/><path class="cls-2" d="M1224.03,916.36c5.45,22.36,13.46,46.46-2.37,66.6-10.59,13.48-25.78,23.57-40.81,31.46-13.28,6.96-27.43,12.27-41.85,16.34-18.37,5.19-34.28,4.96-52.86,5.94-4.12,.21-3.24,7.35-.57,8.84,18.74,10.46,42.39,2.77,61.55-3.22,20.96-6.56,41.12-15.79,58.71-29.05,34.36-25.92,42.16-61.5,21-99.52-1.37-2.45-3.17,1.14-2.81,2.62h0Z"/><path class="cls-2" d="M629.05,1122.45c-12.97-22.53-22.76-57.04-10.27-82,1.13-2.26,1.08-9.95-3.37-8.21-13.18,5.18-10.76,28.82-9.6,40.01,1.98,19.11,10.12,37.29,21.82,52.47,1.23,1.59,2.01-1.22,1.41-2.27h0Z"/><path class="cls-2" d="M462.95,1061.35c1.51,6.44,2,12.62,1.59,19.22-.16,2.57,3.11,4.85,4.13,1.58,1.84-5.9,3.68-11.79,5.53-17.69-1.49-.57-2.98-1.14-4.48-1.72-.18,8.99-.23,17.98-.29,26.97-.03,4.87,5.13,4.71,5.18-.13-.25-6.07,.92-11.77,3.51-17.09-1.67-.64-3.34-1.28-5.01-1.92-.57,8.94-1.82,16.87-4.01,25.56-.88,3.48,3.28,9.15,4.7,3.98,2.66-9.68,5.78-19.16,9.36-28.54-1.55-.94-3.1-1.88-4.65-2.82-5.13,21.52-8.75,43.1-10.41,65.17,1.67,.3,3.34,.6,5.01,.9-.7-21.48-1.46-42.96-2.17-64.44-.11-3.51-4.27-5.16-4.77-.86-1.79,15.51-2.04,30.85-.65,46.41,.43,4.8,4.83,4.64,5.12-.13,1.03-17.31-.55-33.99-4.7-50.81-1.25-5.1-6-1.93-4.99,2.24,2.27,9.33,3.35,18.54,3.3,28.14,1.76-.04,3.51-.09,5.27-.13-.1-11.45-1.16-22.56-3.19-33.82-.64-3.55-4.87-3.69-5.12,.12-.92,13.67-.1,26.67,3.83,39.83,1.12,3.76,4.21,1.44,3.68-1.65-2.07-12.17-3.15-23.83-2.34-36.15-1.71,.04-3.42,.08-5.13,.13,1.92,10.56,2.89,20.96,3,31.67,.05,4.95,5.25,4.8,5.27-.13,.04-10.4-1.11-20.14-3.59-30.25-1.66,.75-3.32,1.49-4.99,2.24,4.01,16.12,5.47,32.13,4.57,48.7,1.71-.04,3.41-.08,5.12-.13-1.43-14.94-1.4-29.49,.24-44.44-1.59-.29-3.18-.57-4.77-.86,.66,21.48,1.26,42.96,1.93,64.44,.11,3.67,4.68,5.44,5.01,.9,1.57-21.7,4.73-43.18,10.12-64.28,.8-3.14-2.42-8.58-4.42-3.74-3.82,9.28-6.98,18.62-9.64,28.3,1.57,1.33,3.13,2.66,4.7,3.98,2.49-9.86,3.99-19.52,4.64-29.67,.21-3.27-3.53-5.68-5.01-1.93-2.83,7.16-3.97,13.54-3.99,21.2,1.73-.04,3.46-.08,5.18-.13,0-8.98,0-17.97-.14-26.96-.04-2.62-3.41-5.43-4.48-1.72-1.72,5.99-3.46,11.98-5.2,17.96,1.38,.53,2.75,1.06,4.13,1.59,.13-7.32-.71-13.55-2.76-20.56-.95-3.23-3.84-1.26-3.21,1.44h0Z"/><path class="cls-2" d="M1241.72,1059.37c-2.09,7.09-3.01,13.8-2.89,21.2,1.43-.33,2.86-.67,4.29-1-1.73-5.97-3.46-11.93-5.18-17.91-1.13-3.93-4.6-2.61-4.65,1.08-.13,8.99-.13,17.98-.14,26.97,1.73-.04,3.45-.08,5.18-.13-.02-7.55-1.31-14.16-4.09-21.19-1.55-3.91-5.11-.92-4.91,2.17,.62,9.81,2.04,19.13,4.44,28.69,1.7-.76,3.39-1.52,5.09-2.28-2.75-10-5.98-19.66-9.93-29.26-1.73-4.2-5.29-.03-4.5,3.05,5.38,21.08,8.66,42.47,10.23,64.17,.34,4.74,4.92,4.63,5.07-.12,.67-21.48,1.27-42.96,1.93-64.44-1.62,.04-3.22,.08-4.84,.12,1.63,14.9,1.8,29.44,.37,44.39,1.69,.3,3.37,.61,5.05,.91-.9-16.58,.62-32.59,4.62-48.7-1.7-.66-3.4-1.33-5.09-1.99-2.48,10.1-3.58,19.88-3.53,30.25,.02,4.96,5.23,4.79,5.27-.13,.11-10.73,1.13-21.14,3.05-31.67-1.75-.32-3.5-.63-5.25-.95,.83,12.6-.21,24.76-2.31,37.18-.39,2.31,2.55,5.63,3.58,2.18,3.91-13.04,4.95-25.95,4.04-39.5-.26-3.88-4.4-5.64-5.24-.95-2.04,11.28-3.05,22.38-3.15,33.83,1.76-.04,3.52-.09,5.27-.13-.05-9.67,1.08-18.78,3.35-28.13,1.02-4.19-3.84-7.07-5.09-1.99-4.15,16.83-5.68,33.51-4.65,50.82,.22,3.63,4.64,5.54,5.05,.91,1.43-15.91,1.21-31.57-.63-47.44-.5-4.31-4.61-2.37-4.72,1.1-.71,21.48-1.47,42.96-2.17,64.44,1.69-.04,3.38-.08,5.07-.12-1.69-22.41-5.31-44.34-10.53-66.2-1.5,1.02-3,2.04-4.5,3.05,3.46,9.06,6.51,18.23,9.07,27.58,1.42,5.15,6.16,1.98,5.09-2.28-2.21-8.78-3.62-17.49-4.2-26.54-1.64,.72-3.27,1.45-4.91,2.17,2.6,5.41,3.74,11.11,3.41,17.11,.05,4.86,5.21,4.73,5.18-.13-.06-8.98-.11-17.97-.29-26.96-1.46,.65-2.93,1.29-4.39,1.94,1.85,5.89,3.68,11.79,5.52,17.68,1.05,3.36,4.2,.65,4.05-1.79-.41-6.59,.11-12.77,1.62-19.2,.49-2.08-2.26-4.83-3.12-1.9h0Z"/><path class="cls-2" d="M803.23,1426.52s34.86,41.83,45.32,76.7c0,0,20.92-41.83,48.81-76.7,0,0-17.43,17.43-45.32,19.18-24.42,1.53-48.81-19.18-48.81-19.18Z"/><path class="cls-2" d="M771.85,1621.75l99.36,8.71,67.98-5.23s-20.92-34.86-67.98-36.6c-47.06-1.74-64.49,1.74-78.44,12.2-13.95,10.46-20.92,20.92-20.92,20.92Z"/><path class="cls-2" d="M714.33,1604.32s-81.93-101.1-109.82-125.5c0,0,87.15,76.7,115.04,115.04l-94.13-122.02,104.58,111.56-66.24-94.13,74.95,80.18-43.58-73.21,52.29,62.75-27.89-62.75,41.83,57.52-47.06,50.55Z"/><path class="cls-2" d="M993.22,1604.32s81.93-101.1,109.82-125.5c0,0-87.15,76.7-115.04,115.04l94.12-122.02-104.58,111.56,66.24-94.13-74.95,80.18,43.58-73.21-52.29,62.75,27.89-62.75-41.83,57.52,47.06,50.55Z"/><path class="cls-2" d="M552.22,1161.57c0-10.46-6.97-73.21,17.43-118.53h38.35s-2.09,49.56,16.39,71.85c18.48,22.28,35.91,46.68,53.34,60.63,17.43,13.95,38.35,41.83,41.83,61.01l3.49,19.18-27.89-15.69-10.46-1.74s-20.92-38.35-45.32-61.01c-24.4-22.66-38.35-59.26-45.32-74.08l-6.1-11.33s-18.3,22.66-20.05,32.25l-13.07,40.96-2.61-3.49Z"/><path class="cls-2" d="M545.25,1112.77s0-54.62,20.92-74.37l-11.62-4.65s-19.75,37.18-9.3,79.02Z"/><path class="cls-2" d="M540.6,1019.8s-19.75,37.19-9.29,79.02c0,0,0-54.62,20.92-74.37l-11.62-4.65Z"/><path class="cls-2" d="M526.64,1015.15s-18.59,35-8.75,74.37c0,0,0-51.4,19.68-70l-10.94-4.38Z"/><path class="cls-2" d="M510.51,1015.15s-15.11,28.44-7.11,60.43c0,0,0-41.77,16-56.87l-8.89-3.56Z"/><path class="cls-2" d="M496.57,1001.21s-15.11,28.44-7.11,60.43c0,0,0-41.77,16-56.87l-8.89-3.55Z"/><path class="cls-2" d="M482.62,987.27s-15.11,28.44-7.11,60.43c0,0,0-41.77,16-56.87l-8.89-3.55Z"/><polygon class="cls-2" points="499.93 1095.34 492.96 1158.09 510.39 1098.82 520.85 1109.28 513.88 1189.46 532.47 1123.23 499.93 1095.34"/><polygon class="cls-2" points="541.76 1231.3 538.28 1133.69 552.22 1154.6 541.76 1231.3"/><polygon class="cls-2" points="843.32 692.68 838.09 750.21 829.37 692.68 820.66 739.75 811.94 690.94 803.23 732.77 796.25 690.94 785.79 725.8 778.82 687.45 771.85 715.34 757.91 687.45 843.32 692.68"/><polygon class="cls-2" points="865.98 692.68 871.21 750.21 879.92 692.68 888.63 739.75 897.35 690.94 906.07 732.77 913.04 690.94 923.5 725.8 930.47 687.45 937.44 715.34 951.39 687.45 865.98 692.68"/><polygon class="cls-2" points="503.41 1332.4 510.39 1238.27 524.33 1395.15 503.41 1332.4"/><polygon class="cls-2" points="530.14 1320.78 530.14 1216.19 542.93 1290.56 548.74 1227.81 559.19 1262.67 535.95 1304.51 530.14 1320.78"/><polygon class="cls-2" points="1176.25 1320.78 1176.25 1216.19 1163.46 1290.56 1157.65 1227.81 1147.19 1262.67 1170.44 1304.51 1176.25 1320.78"/><polygon class="cls-2" points="538.28 1363.77 546.41 1427.69 583.6 1477.65 555.71 1423.04 587.09 1454.41 566.17 1406.77 538.28 1363.77"/><path class="cls-2" d="M899.98,977.7c-2.63-10.56-16-79.58,1.91-79.35,4.51,.06,5.09-6.8,4.59-9.77-.96-5.73-2.28-8.19-6.8-11.75-1.72-1.35-4.17-2.13-6.28-1.09-14.99,7.36-13.2,28.25-11.76,42.49,2.03,20.1,7.72,42.75,15.31,61.53,1.15,2.84,3.54,.02,3.02-2.05h0Z"/><path class="cls-2" d="M1110.63,1186.03c.25,8.99-.83,16.95-4.21,25.29-2.5,6.15-6.2,11.76-7.68,18.23-.27,1.19,.78,5.51,2.85,4.12,12.84-8.57,12.4-34.55,10.61-48.01-.18-1.39-1.6-.84-1.57,.37h0Z"/><path class="cls-2" d="M1098.49,1193.93c2.57,7.22,2.14,14.33-.06,21.56-1.47,4.83-4.27,9.08-5.03,14.08-.24,1.59,.58,5.18,2.94,4.25,6.4-2.53,8.14-13.33,8.57-19.38,.54-7.55-1.56-15.44-4.4-22.4-.91-2.25-2.57,.36-2.02,1.89h0Z"/><path class="cls-2" d="M1089.54,1202.68c2.03,4.55,2.55,9.89,1.17,14.69-1.07,3.71-3.54,6.83-3.91,10.69-.1,1.06,.2,3.93,1.97,3.71,5.38-.68,6.64-9.84,6.73-14.14,.14-6.22-1.39-11.26-4.77-16.44-.76-1.17-1.53,.73-1.2,1.48h0Z"/><path class="cls-2" d="M1079.9,1213.12c1.5,2.14,3.25,5.68,2.18,8.23,.18-.43-.03-.09-.35,.32-.49,.61-.91,1.16-1.23,1.87-.78,1.74-.79,3.39-.58,5.25,.15,1.29,1.05,2.31,2.29,2.52,2.41,.42,3.73-2.77,3.98-4.68,.12-.8,.1-1.59-.06-2.39,0,.85,.02,.7,.07-.44-.03-.99-.2-1.96-.29-2.94-.42-4.27-1.29-7.71-4.66-10.56-1.48-1.25-1.96,1.93-1.34,2.81h0Z"/><path class="cls-2" d="M1151.88,1161.57c0-10.46,6.97-73.21-17.43-118.53h-38.35s2.09,49.56-16.39,71.85c-18.48,22.28-35.91,46.68-53.34,60.63-17.43,13.95-38.35,41.83-41.83,61.01l-3.49,19.18,27.89-15.69,10.46-1.74s20.92-38.35,45.32-61.01c24.41-22.66,38.35-59.26,45.32-74.08l6.1-11.33s18.3,22.66,20.04,32.25l13.08,40.96,2.61-3.49Z"/><path class="cls-2" d="M1158.85,1112.77s0-54.62-20.92-74.37l11.62-4.65s19.75,37.18,9.3,79.02Z"/><path class="cls-2" d="M1163.49,1019.8s19.75,37.19,9.3,79.02c0,0,0-54.62-20.92-74.37l11.62-4.65Z"/><path class="cls-2" d="M1177.46,1015.15s18.59,35,8.75,74.37c0,0,0-51.4-19.69-70l10.94-4.38Z"/><path class="cls-2" d="M1193.59,1015.15s15.11,28.44,7.11,60.43c0,0,0-41.77-16-56.87l8.89-3.56Z"/><path class="cls-2" d="M1207.53,1001.21s15.11,28.44,7.11,60.43c0,0,0-41.77-16-56.87l8.89-3.55Z"/><path class="cls-2" d="M1221.48,987.27s15.11,28.44,7.11,60.43c0,0,0-41.77-15.99-56.87l8.89-3.55Z"/><polygon class="cls-2" points="1207.65 1095.34 1214.62 1158.09 1197.2 1098.82 1186.74 1109.28 1193.71 1189.46 1175.12 1123.23 1207.65 1095.34"/><polygon class="cls-2" points="1165.82 1231.3 1169.3 1133.69 1155.36 1154.6 1165.82 1231.3"/><polygon class="cls-2" points="1200.68 1332.4 1193.71 1238.27 1179.76 1395.15 1200.68 1332.4"/><polygon class="cls-2" points="1169.3 1363.77 1161.17 1427.69 1123.99 1477.65 1151.88 1423.04 1120.5 1454.41 1141.42 1406.77 1169.3 1363.77"/></g></g><path class="cls-2" d="M415.35,889.37s88.56-47.25,128.7-99.95c27.69-36.36,88.31-55.21,165.93-15.06,77.61,40.15,90.99,55.21,152.54,55.21,69.64,0,150.35-92.8,216.78-85.32,31.65,3.56,74.92,33.03,112.4,67.76,41.76,38.68,78.12,82.81,120.43,82.81l-22.88-165.69-504.34-132.94-325.64,62.85-65.09,163.01,21.17,67.32Z"/><path class="cls-1" d="M842.91,582.17c0-9.4,8.04-17.02,17.95-17.02s17.96,7.62,17.96,17.02-8.04,17.03-17.96,17.03-17.95-7.62-17.95-17.03Z"/><path class="cls-1" d="M714.45,575.41c0-9.4,8.03-17.03,17.95-17.03s17.96,7.62,17.96,17.03-8.04,17.03-17.96,17.03-17.95-7.62-17.95-17.03Z"/><path class="cls-1" d="M585.98,565.26c0-9.4,8.04-17.03,17.95-17.03s17.95,7.62,17.95,17.03-8.04,17.03-17.95,17.03-17.95-7.62-17.95-17.03Z"/><path class="cls-1" d="M458.7,546.08c0-9.4,8.04-17.03,17.95-17.03s17.96,7.62,17.96,17.03-8.04,17.03-17.96,17.03-17.95-7.62-17.95-17.03Z"/><path class="cls-1" d="M1017.99,575.41c0-9.4-8.04-17.03-17.95-17.03s-17.95,7.62-17.95,17.03,8.03,17.03,17.95,17.03,17.95-7.62,17.95-17.03Z"/><path class="cls-1" d="M1146.45,565.26c0-9.4-8.04-17.03-17.95-17.03s-17.95,7.62-17.95,17.03,8.04,17.03,17.95,17.03,17.95-7.62,17.95-17.03Z"/><path class="cls-1" d="M1273.73,546.08c0-9.4-8.04-17.03-17.95-17.03s-17.96,7.62-17.96,17.03,8.04,17.03,17.96,17.03,17.95-7.62,17.95-17.03Z"/><path class="cls-1" d="M387.53,567.07s32.11-164.11,74.93-233.48c0,0-45.76,170.76-47.55,243.51l-27.39-10.03Z"/><path class="cls-1" d="M1334.92,561.99s-34.79-164.11-77.61-233.48c0,0,49,175.83,50.79,248.59l26.82-15.11Z"/><g><path class="cls-2" d="M1347.12,568.18s-33.26,11.3-96.46,36.04c-59.73,23.38-306.88,44.79-389.63,44.79-89.43,0-329.9-21.41-389.63-44.79-63.2-24.74-96.46-36.04-96.46-36.04,0,0-109.77,68.03-89.81,157.7,19.72,88.61,419.55,127.56,582.82,128.71,163.28-1.15,549.27-40.1,568.99-128.71,19.96-89.67-89.81-157.7-89.81-157.7Z"/><path class="cls-1" d="M867.95,860.83h-.04c-83.47-.59-222.91-10.6-346.25-31.64-151.7-25.88-233.33-60.18-242.63-101.95-8.61-38.7,4.82-79.49,38.84-117.97,25.27-28.58,52.63-45.68,53.78-46.39l2.51-1.55,2.79,.95c.34,.12,34.12,11.63,96.73,36.14,59.72,23.37,299.46,44.36,387.36,44.36s330.91-22.27,387.36-44.36c62.61-24.51,96.4-36.02,96.73-36.14l2.79-.95,2.51,1.55c1.15,.71,28.51,17.82,53.78,46.39,34.02,38.48,47.45,79.27,38.84,117.97-9.31,41.83-88.61,76.13-235.68,101.94-119.94,21.06-256.87,31.07-339.36,31.65h-.04Zm-492.15-285.74c-15.74,10.59-101.71,72.44-84.57,149.44,7.86,35.31,90.44,68.11,232.53,92.35,121.97,20.81,263.91,30.9,344.19,31.47,81.98-.58,218.04-10.53,337.25-31.46,137.63-24.16,217.77-56.96,225.65-92.36,17.16-77.1-68.82-138.87-84.57-149.44-9.34,3.26-41.32,14.59-93.33,34.95-59.68,23.36-305.57,45.22-391.91,45.22s-331.03-21.39-391.91-45.22c-52.01-20.36-83.99-31.7-93.33-34.95Z"/></g><path class="cls-1" d="M339.42,714.17c8.83,31.39,101.52,52.32,101.52,52.32,0,0-79.45-29.3-88.27-54.41-8.83-25.11,15.45-66.97,15.45-66.97,0,0-37.51,37.67-28.69,69.06Z"/><path class="cls-1" d="M379.2,703.69c-8.83-25.11,15.45-66.97,15.45-66.97,0,0-37.52,37.67-28.69,69.06,8.83,31.39,101.52,52.32,101.52,52.32,0,0-79.45-29.3-88.28-54.41Z"/><path class="cls-1" d="M405.74,695.3c-8.83-25.11,15.45-66.97,15.45-66.97,0,0-37.52,37.67-28.69,69.06,8.83,31.39,101.52,52.32,101.52,52.32,0,0-79.45-29.3-88.27-54.41Z"/><path class="cls-1" d="M1285.12,766.49s92.69-20.93,101.52-52.32c8.83-31.39-28.69-69.06-28.69-69.06,0,0,24.27,41.85,15.45,66.97-8.83,25.11-88.27,54.41-88.27,54.41Z"/><path class="cls-1" d="M1360.1,705.78c8.83-31.39-28.69-69.06-28.69-69.06,0,0,24.28,41.86,15.45,66.97-8.83,25.11-88.27,54.41-88.27,54.41,0,0,92.69-20.93,101.52-52.32Z"/><path class="cls-1" d="M1232.04,749.71s92.69-20.93,101.52-52.32c8.83-31.39-28.69-69.06-28.69-69.06,0,0,24.28,41.85,15.45,66.97-8.83,25.11-88.28,54.41-88.28,54.41Z"/><g><path class="cls-1" d="M715.87,680.95s68.58,9.52,155.55,9.52,153.88-14.28,153.88-14.28c0,0-61.89,25.38-153.88,25.38s-155.55-20.62-155.55-20.62Z"/><path class="cls-1" d="M692.66,707.05s78.86,10.95,178.89,10.95,176.97-16.42,176.97-16.42c0,0-71.17,29.19-176.97,29.19s-178.89-23.71-178.89-23.71Z"/><path class="cls-1" d="M669.45,733.14s89.15,12.37,202.22,12.37,200.05-18.56,200.05-18.56c0,0-80.45,32.99-200.05,32.99s-202.22-26.81-202.22-26.81Z"/><path class="cls-1" d="M646.25,759.23s99.44,13.8,225.56,13.8,223.13-20.7,223.13-20.7c0,0-89.74,36.8-223.13,36.8s-225.56-29.9-225.56-29.9Z"/><path class="cls-1" d="M623.04,785.32s109.73,15.23,248.89,15.23,246.21-22.84,246.21-22.84c0,0-99.02,40.61-246.21,40.61s-248.89-32.99-248.89-32.99Z"/></g><g><g><path class="cls-1" d="M1279.7,8.14c-22.12,87.19-108.89,319.69-414.69,332.31C559.19,327.83,470.97,95.33,448.85,8.14c-.76-3.02-4.98-2.22-4.71,.89,36.8,430.38,350.43,448.43,418.26,448.43s385.22-18.06,422.02-448.43c.27-3.11-3.95-3.9-4.71-.89Z"/><path class="cls-2" d="M862.39,463.71c-46.32,0-137.02-8.29-224.12-63.8-52.5-33.46-95.64-79.27-128.22-136.14-39.32-68.64-63.59-154.16-72.14-254.21-.22-2.54,.58-4.94,2.25-6.75,1.64-1.78,3.97-2.81,6.4-2.81,3.99,0,7.34,2.66,8.34,6.61,23.95,94.37,111.86,315.15,410.1,327.59,296.92-12.39,384.69-233.21,408.64-327.6,1-3.95,4.35-6.6,8.34-6.6,2.43,0,4.77,1.02,6.41,2.81,1.67,1.81,2.46,4.21,2.24,6.75-8.56,100.08-32.89,185.61-72.31,254.21-32.7,56.91-76.04,102.71-128.81,136.14-87.62,55.5-179.91,63.79-227.12,63.79ZM454.87,49.61c50.28,371.86,322.77,401.61,407.52,401.61s360.67-29.77,411.24-401.37c-15.44,44.29-42.89,103.23-90.23,156.56-77.76,87.58-184.8,134.78-318.14,140.28h-.26s-.26,0-.26,0c-133.38-5.5-240.65-52.7-318.86-140.27-47.93-53.67-75.55-112.63-91.02-156.81Z"/></g><path class="cls-2" d="M485.33,132.76c-4.37,16.54-5.71,35.06-3.87,52.08,1.72,15.91,5.75,36.82,16.69,49.17,2.99,3.38,2.97-6.23,2.54-7.49-4.99-14.54-11.36-28.03-14.02-43.33-2.85-16.38-2.58-31.65,.51-47.99,.27-1.45-1.02-5.57-1.84-2.45h0Z"/><path class="cls-2" d="M498.48,170.12c-1.94,20.65-.72,41.13,3.67,61.4,4.07,18.84,11.02,42.65,24.68,56.91,3.02,3.16,3.12-6,2.52-7.42-7.5-17.69-16.56-33.93-21.9-52.57-5.37-18.74-7.62-38.3-7.16-57.77,.04-1.81-1.58-3.01-1.81-.56h0Z"/><path class="cls-2" d="M517.48,192.85c.65,24.8,2.44,49.74,8.43,73.92,5.08,20.53,14.29,47.3,32.17,60.31,2.88,2.09,2.29-7.38,1.59-8.56-11.54-19.41-22.72-37.34-29.64-59.08-6.84-21.48-9.92-44.09-10.81-66.59-.09-2.31-1.79-2.37-1.73,0h0Z"/><path class="cls-2" d="M544.03,219.77c-2.38,27.27,.23,56.83,8.07,83.08,4.11,13.75,9.7,27.08,16.74,39.59,6.02,10.71,13.04,23.7,23.46,30.7,3.5,2.35,3.39-8.58,2.58-10.06-6-10.84-13.9-20.54-20.11-31.29-6.3-10.89-11.5-22.34-15.93-34.1-9.55-25.33-13.72-50.24-12.85-77.32,.06-1.96-1.72-3.24-1.95-.6h0Z"/><path class="cls-2" d="M569.76,255.58c-.96,27.49,4.39,54.8,14.33,80.41,8.87,22.86,24.03,52.23,46.26,64.71,3.4,1.91,2.8-7.96,1.74-9.4-14.88-20.32-30.9-38.2-42-61.15-11.29-23.34-16.99-48.75-18.31-74.58-.14-2.71-1.93-2.77-2.03,0h0Z"/><path class="cls-2" d="M598.72,286.03c.51,23.68,5.77,46.48,14.31,68.55,4.28,11.06,9.5,21.75,15.82,31.8,5.8,9.23,12.71,20.73,22.33,26.43,3.87,2.29,2.85-8.99,1.94-10.47-5.69-9.24-13.3-17.25-19.42-26.23-5.93-8.7-11.26-17.86-15.75-27.39-9.38-19.94-14.41-41.58-16.81-63.44-.35-3.16-2.48-1.8-2.42,.75h0Z"/><path class="cls-2" d="M632.22,306.86c-1.21,22.84,1.36,45.99,8.92,67.65,3.68,10.53,8.48,20.62,14.26,30.15,5.33,8.79,12.37,20.92,22.08,25.35,4.47,2.04,3.02-9.42,2.05-11.08-4.95-8.47-11.85-15.67-17.39-23.76-5.83-8.54-10.77-17.68-14.8-27.2-8.26-19.49-12.96-39.88-12.7-61.11,.04-3.3-2.26-3.26-2.43,0h0Z"/><path class="cls-2" d="M666.82,338.14c2.52,26.33,7.32,51.13,20.34,74.44,5.56,9.95,12.2,19.44,19.98,27.8,7.01,7.53,15.84,16.66,26.27,18.72,3.07,.61,2.13-8.02,1.11-9.27-6.77-8.27-15.51-14.76-22.83-22.53-7.12-7.55-13.51-15.59-19.06-24.36-12.8-20.22-19.42-43.09-22.98-66.58-.69-4.53-3.12-1.16-2.84,1.78h0Z"/><path class="cls-2" d="M708.19,353.69c-4.02,18.16-1.08,38.9,4.88,56.31,5.28,15.42,17.27,41,34.86,45.32,3.7,.91,2.44-9.76,1.34-11.22-4.91-6.49-11.34-11.7-16.58-17.95-5.28-6.3-9.85-13.17-13.45-20.56-8.01-16.44-9.75-32.54-8.92-50.59,.07-1.54-1.53-3.99-2.13-1.31h0Z"/><path class="cls-2" d="M749.68,366.97c-2.82,18.25-1.33,37.13,4.42,54.69,4.75,14.5,14.74,37.86,30.67,43.08,4.29,1.41,3.25-8.71,1.96-10.55-8.89-12.6-19.84-22.51-26.61-36.73-7.33-15.4-9.99-32.03-7.95-48.94,.31-2.58-1.87-5.51-2.48-1.56h0Z"/><path class="cls-2" d="M789.47,376.81c-3.17,17.61,1.16,34.63,7.28,51.15,3.57,9.63,8.21,18.97,13.02,28.04,3.07,5.78,7.42,15.09,14.86,15.15,3.63,.03,2.38-8.54,1.22-10.21-3.91-5.58-8.64-10.24-12.3-16.07-3.82-6.06-7.45-12.24-10.85-18.54-8.24-15.22-13.63-30.61-11.13-48.2,.31-2.18-1.5-4.61-2.09-1.31h0Z"/><path class="cls-2" d="M832.93,379.74c-1.75,19.75-.55,40.16,4.35,59.41,2,7.85,11.65,42.4,25.59,31.21,2.05-1.65,2.93-9.02,0-10.32-12.95-5.77-16.83-16.92-21.14-29.9-5.28-15.9-7.23-32-6.1-48.71,.19-2.75-2.31-6.04-2.7-1.69h0Z"/><g><path class="cls-2" d="M1242.26,135.21c3.08,16.31,3.36,31.62,.51,47.99-2.67,15.3-9.03,28.79-14.02,43.33-.47,1.37-.41,10.82,2.54,7.49,10.95-12.35,14.96-33.25,16.69-49.17,1.84-17.01,.49-35.54-3.87-52.08-.82-3.12-2.12,1-1.84,2.45h0Z"/><path class="cls-2" d="M1229.15,170.67c.46,19.46-1.79,39.03-7.16,57.77-5.34,18.64-14.39,34.87-21.9,52.57-.64,1.51-.46,10.53,2.52,7.42,13.67-14.27,20.57-38.05,24.68-56.91,4.41-20.26,5.61-40.77,3.67-61.4-.22-2.36-1.85-1.34-1.81,.56h0Z"/><path class="cls-2" d="M1210.22,192.85c-.89,22.5-3.97,45.11-10.81,66.59-6.92,21.74-18.09,39.66-29.64,59.08-.75,1.26-1.22,10.61,1.59,8.56,17.86-12.99,27.13-39.78,32.17-60.31,5.94-24.2,7.78-49.1,8.43-73.92,.06-2.34-1.64-2.33-1.73,0h0Z"/><path class="cls-2" d="M1183.45,220.37c.88,27.08-3.29,51.98-12.85,77.32-4.44,11.76-9.63,23.21-15.93,34.1-6.22,10.74-14.11,20.45-20.11,31.29-.85,1.53-.9,12.4,2.58,10.06,10.4-6.99,17.44-19.99,23.45-30.7,7.03-12.51,12.62-25.84,16.73-39.59,7.84-26.24,10.45-55.82,8.07-83.08-.22-2.55-2.02-1.45-1.95,.6h0Z"/><path class="cls-2" d="M1157.65,255.58c-1.32,25.83-7.02,51.24-18.31,74.58-11.1,22.95-27.11,40.83-42,61.15-1.1,1.51-1.6,11.28,1.74,9.4,22.24-12.49,37.39-41.85,46.26-64.71,9.94-25.61,15.29-52.92,14.33-80.41-.09-2.73-1.88-2.74-2.03,0h0Z"/><path class="cls-2" d="M1128.3,285.29c-2.4,21.85-7.43,43.5-16.81,63.44-4.49,9.53-9.83,18.68-15.75,27.39-6.1,8.99-13.73,16.99-19.42,26.23-.96,1.57-1.85,12.72,1.94,10.47,9.63-5.71,16.53-17.17,22.33-26.43,6.3-10.05,11.53-20.73,15.81-31.8,8.54-22.08,13.8-44.87,14.31-68.55,.05-2.43-2.06-4.02-2.42-.75h0Z"/><path class="cls-2" d="M1094.78,306.86c.26,21.23-4.43,41.62-12.7,61.11-3.85,9.09-8.52,17.83-14.02,26.03-5.72,8.53-13,16.07-18.17,24.93-1.01,1.74-2.36,13.1,2.06,11.08,9.33-4.26,16.13-15.74,21.33-24.13,6.12-9.88,11.19-20.39,15.02-31.37,7.55-21.66,10.13-44.8,8.92-67.65-.17-3.22-2.47-3.34-2.43,0h0Z"/><path class="cls-2" d="M1059.78,336.36c-3.56,23.51-10.2,46.33-22.98,66.58-5.29,8.39-11.37,16.12-18.13,23.37-7.59,8.14-16.71,14.91-23.76,23.52-1.06,1.29-1.94,9.87,1.11,9.27,10.46-2.06,19.24-11.2,26.27-18.72,7.79-8.33,14.43-17.85,19.98-27.8,13.02-23.32,17.82-48.11,20.34-74.44,.28-2.91-2.15-6.33-2.84-1.78h0Z"/><path class="cls-2" d="M1019.12,355c.82,18.04-.93,34.16-8.93,50.59-3.41,6.99-7.68,13.55-12.62,19.55-5.45,6.63-12.23,12.12-17.4,18.96-1.15,1.51-2.34,12.12,1.33,11.22,17.6-4.33,29.57-29.88,34.86-45.32,5.96-17.4,8.91-38.16,4.88-56.31-.59-2.68-2.19-.23-2.12,1.31h0Z"/><path class="cls-2" d="M977.27,368.53c2.05,16.91-.61,33.54-7.95,48.94-6.77,14.21-17.72,24.13-26.61,36.73-1.33,1.89-2.29,11.94,1.96,10.55,15.93-5.22,25.91-28.56,30.67-43.08,5.75-17.55,7.24-36.44,4.42-54.69-.61-3.94-2.8-1.04-2.48,1.56h0Z"/><path class="cls-2" d="M937.87,378.12c2.51,17.62-2.88,32.96-11.12,48.2-3.41,6.3-7.04,12.48-10.85,18.54-3.67,5.82-8.39,10.49-12.3,16.07-1.19,1.7-2.4,10.24,1.21,10.21,7.44-.06,11.81-9.36,14.86-15.15,4.8-9.09,9.45-18.4,13.02-28.04,6.12-16.51,10.44-33.54,7.28-51.15-.59-3.29-2.41-.89-2.09,1.31h0Z"/><path class="cls-2" d="M893.8,381.43c1.13,16.72-.81,32.79-6.09,48.71-4.29,12.91-8.24,24.15-21.15,29.9-2.94,1.31-2.04,8.69,0,10.32,13.94,11.19,23.61-23.42,25.59-31.21,4.9-19.25,6.1-39.65,4.35-59.41-.38-4.33-2.89-1.08-2.7,1.69h0Z"/></g></g><g><circle class="cls-1" cx="853.06" cy="408.22" r="107.55" transform="translate(-91.28 357.53) rotate(-22.5)"/><g><path class="cls-1" d="M853.06,502.11c-51.77,0-93.89-42.12-93.89-93.89s42.12-93.89,93.89-93.89,93.89,42.12,93.89,93.89-42.12,93.89-93.89,93.89Z"/><path d="M853.06,505.53c-53.65,0-97.31-43.65-97.31-97.3s43.65-97.3,97.31-97.3,97.3,43.65,97.3,97.3-43.65,97.3-97.3,97.3Zm0-187.78c-49.89,0-90.48,40.59-90.48,90.48s40.59,90.48,90.48,90.48,90.47-40.59,90.47-90.48-40.59-90.48-90.47-90.48Z"/></g><path class="cls-2" d="M853.06,283.61c-68.71,0-124.62,55.9-124.62,124.62s55.9,124.62,124.62,124.62,124.62-55.9,124.62-124.62-55.9-124.62-124.62-124.62Zm0,232.16c-59.3,0-107.55-48.24-107.55-107.55s48.24-107.55,107.55-107.55,107.54,48.24,107.54,107.55-48.25,107.55-107.54,107.55Z"/><g><path class="cls-2" d="M859.41,399.62c12.34-8.85,21.42-19.69,23.24-35.42,1.58-13.58-3.92-28.28-15.05-36.56-22.93-17.05-53.09,8.05-42.25,33.88,.46,1.11,1.8,3.1,3.31,2.76,18.96-4.28,37.29,13.9,24.5,31.75-2.79,3.89,1.39,13.48,5.47,7.9,16.29-22.33-.98-57.76-30.24-51.1,1.1,.92,2.21,1.84,3.31,2.75-3.56-8.45,3.17-17.26,10.71-20.83,8.67-4.11,18.44-.92,24.99,5.57,16.47,16.32,5.19,41.58-9.96,54.54-1.7,1.46-.54,6.57,1.97,4.77h0Z"/><path class="cls-2" d="M846.71,416.82c-12.34,8.85-21.42,19.69-23.24,35.42-1.57,13.58,3.92,28.29,15.05,36.56,22.93,17.06,53.09-8.05,42.25-33.88-.46-1.11-1.8-3.1-3.31-2.76-18.96,4.28-37.29-13.9-24.5-31.75,2.79-3.89-1.39-13.48-5.47-7.9-16.29,22.33,.99,57.76,30.24,51.1-1.11-.92-2.21-1.84-3.31-2.75,3.56,8.45-3.17,17.26-10.71,20.83-8.66,4.11-18.44,.92-24.99-5.57-16.47-16.32-5.19-41.58,9.95-54.54,1.7-1.46,.54-6.57-1.97-4.77h0Z"/><path class="cls-2" d="M843.32,400.85c-8.96-12.34-19.81-22.47-35.77-24.17-13.32-1.41-26.92,5.31-34.1,16.59-6.63,10.42-6.92,23.97,.12,34.27,6.85,10.03,19.38,15.55,30.94,10.71,2.47-1.03,2.96-4.88,2.45-7.1-4.7-20.83,20.5-31.96,36.08-20.81,5.01,3.59,7.29-7.15,3.52-9.9-10.49-7.66-24.63-8.64-35.32-.69-10.59,7.88-14.29,22.13-11.45,34.61,.82-2.37,1.63-4.74,2.45-7.11-8.66,3.65-18.42-.25-23.6-7.89-6.14-9.08-.98-19.26,6.83-25.35,17.14-13.38,42.39-4.39,55.34,10.84,2.23,2.62,3.85-2.15,2.49-4.01h0Z"/><path class="cls-2" d="M862.79,415.6c8.96,12.34,19.81,22.47,35.77,24.16,13.32,1.41,26.92-5.31,34.1-16.59,6.63-10.42,6.92-23.98-.12-34.27-6.85-10.03-19.38-15.55-30.95-10.71-2.47,1.03-2.95,4.88-2.45,7.11,4.71,20.83-20.5,31.96-36.08,20.81-5.01-3.59-7.29,7.14-3.52,9.9,10.49,7.66,24.63,8.64,35.32,.68,10.59-7.88,14.29-22.12,11.45-34.61-.82,2.37-1.64,4.74-2.45,7.11,8.66-3.65,18.43,.25,23.59,7.9,6.14,9.08,.98,19.26-6.83,25.35-17.14,13.38-42.39,4.39-55.34-10.84-2.23-2.62-3.85,2.15-2.5,4.01h0Z"/></g><path class="cls-2" d="M827.45,408.22c0-14.14,11.46-25.61,25.61-25.61s25.61,11.46,25.61,25.61-11.47,25.61-25.61,25.61-25.61-11.47-25.61-25.61Z"/></g></svg>